mtllib switch.mtl
o switch.obj
v 0.449746 0.342864 -0.117181
v 0.480845 0.335000 -0.125000
v 0.449746 0.657136 -0.117181
v 0.480845 0.665000 -0.125000
v 0.449746 0.342864 0.117181
v 0.480845 0.335000 0.125000
v 0.449746 0.657136 0.117181
v 0.480845 0.665000 0.125000
v 0.480845 0.500000 -0.125000
v 0.449746 0.500000 -0.117181
v 0.480845 0.500000 0.125000
v 0.449746 0.500000 0.117181
v 0.449746 0.546342 -0.117181
v 0.480845 0.546342 0.125000
v 0.480845 0.546342 -0.125000
v 0.449746 0.546342 0.117181
v 0.480845 0.453658 -0.125000
v 0.449746 0.453658 0.117181
v 0.449746 0.453658 -0.117181
v 0.480845 0.453658 0.125000
v 0.449746 0.342864 0.000000
v 0.480845 0.335000 0.000000
v 0.480845 0.665000 -0.000000
v 0.449746 0.657136 -0.000000
v 0.480845 0.500000 0.000000
v 0.463554 0.500000 0.000000
v 0.480845 0.546342 -0.000000
v 0.449746 0.546342 -0.000000
v 0.449746 0.453658 0.000000
v 0.480845 0.453658 0.000000
v 0.449746 0.342864 -0.058591
v 0.480845 0.335000 -0.058591
v 0.480845 0.665000 -0.058591
v 0.449746 0.657136 -0.058591
v 0.480845 0.500000 -0.058591
v 0.449746 0.500000 -0.058591
v 0.480845 0.546342 -0.058591
v 0.449746 0.546342 -0.058591
v 0.449746 0.453658 -0.058591
v 0.480845 0.453658 -0.058591
v 0.480845 0.335000 0.058591
v 0.480845 0.665000 0.058591
v 0.449746 0.657136 0.058591
v 0.480845 0.500000 0.058591
v 0.449746 0.500000 0.058591
v 0.480845 0.546342 0.058591
v 0.449746 0.546342 0.058591
v 0.449746 0.453658 0.058591
v 0.480845 0.453658 0.058591
v 0.449746 0.342864 0.058591
v 0.412588 0.542058 0.117181
v 0.412588 0.500000 0.117181
v 0.412588 0.542058 0.058591
v 0.412588 0.500000 0.058591
v 0.412588 0.457943 0.117181
v 0.412588 0.457943 0.058591
v 0.412588 0.542058 -0.117181
v 0.412588 0.542058 -0.058591
v 0.412588 0.500000 -0.117181
v 0.412588 0.500000 -0.058591
v 0.412588 0.457943 -0.117181
v 0.412588 0.457943 -0.058591
v 0.402360 0.536378 0.110958
v 0.402360 0.500000 0.110958
v 0.402360 0.536378 0.064813
v 0.402360 0.500000 0.064813
v 0.402360 0.463622 0.110958
v 0.402360 0.463622 0.064813
v 0.402360 0.536378 -0.110958
v 0.402360 0.536378 -0.064813
v 0.402360 0.500000 -0.110958
v 0.402360 0.500000 -0.064813
v 0.402360 0.463622 -0.110958
v 0.402360 0.463622 -0.064813
v 0.463554 0.546342 -0.058591
v 0.463554 0.546342 -0.000000
v 0.463554 0.500000 -0.058591
v 0.463554 0.453658 -0.058591
v 0.463554 0.453658 0.000000
v 0.463554 0.546342 0.058591
v 0.463554 0.500000 0.058591
v 0.463554 0.453658 0.058591
vn -0.735580 -0.478939 -0.479103
vn 0.349193 -0.662482 -0.662708
vn -0.735580 0.478939 -0.479103
vn 0.349193 0.662482 -0.662708
vn -0.735580 -0.478939 0.479103
vn 0.349193 -0.662482 0.662708
vn -0.735580 0.478939 0.479103
vn 0.349193 0.662482 0.662708
vn 0.614883 0.000000 -0.788618
vn -0.122849 0.000000 -0.992425
vn 0.614883 0.000000 0.788618
vn -0.122849 0.000000 0.992425
vn -0.458798 0.284469 -0.841773
vn 0.614883 0.000000 0.788618
vn 0.614883 0.000000 -0.788618
vn -0.458798 0.284469 0.841773
vn 0.614883 0.000000 -0.788618
vn -0.458798 -0.284469 0.841773
vn -0.458798 -0.284469 -0.841773
vn 0.614883 0.000000 0.788618
vn -0.789034 -0.614349 0.000000
vn 0.614349 -0.789034 0.000000
vn 0.614350 0.789034 0.000000
vn -0.789034 0.614350 0.000000
vn 1.000000 0.000000 0.000000
vn -1.000000 0.000000 0.000000
vn 1.000000 0.000000 0.000000
vn -0.707107 -0.707107 0.000000
vn -0.707107 0.707107 0.000000
vn 1.000000 0.000000 0.000000
vn -0.789034 -0.614349 0.000000
vn 0.614349 -0.789034 0.000000
vn 0.614350 0.789034 0.000000
vn -0.789034 0.614350 0.000000
vn 1.000000 0.000000 0.000000
vn 0.000000 0.000000 1.000000
vn 1.000000 0.000000 0.000000
vn -0.726507 -0.002261 0.687155
vn -0.726507 0.002261 0.687155
vn 1.000000 0.000000 0.000000
vn 0.614349 -0.789034 0.000000
vn 0.614350 0.789034 0.000000
vn -0.789034 0.614350 0.000000
vn 1.000000 0.000000 0.000000
vn 0.000000 0.000000 -1.000000
vn 1.000000 0.000000 0.000000
vn -0.726507 -0.002261 -0.687155
vn -0.726507 0.002261 -0.687155
vn 1.000000 0.000000 0.000000
vn -0.789034 -0.614349 0.000000
vn -0.391521 0.652988 0.648319
vn -0.269907 0.000000 0.962886
vn -0.391521 0.652988 -0.648319
vn -0.269907 0.000000 -0.962887
vn -0.391521 -0.652988 0.648319
vn -0.391521 -0.652988 -0.648319
vn -0.391521 0.652988 -0.648319
vn -0.391521 0.652988 0.648319
vn -0.269907 0.000000 -0.962886
vn -0.269907 0.000000 0.962887
vn -0.391521 -0.652988 -0.648319
vn -0.391521 -0.652988 0.648319
vn -0.853870 0.372259 0.363770
vn -0.871717 0.000000 0.490011
vn -0.853870 0.372259 -0.363770
vn -0.871716 0.000000 -0.490011
vn -0.853870 -0.372259 0.363771
vn -0.853870 -0.372259 -0.363771
vn -0.853870 0.372259 -0.363770
vn -0.853870 0.372259 0.363770
vn -0.871717 0.000000 -0.490011
vn -0.871716 0.000000 0.490011
vn -0.853870 -0.372259 -0.363771
vn -0.853870 -0.372259 0.363771
vn -0.577350 -0.577350 0.577350
vn -0.707107 -0.707107 0.000000
vn -0.707107 0.000000 0.707107
vn -0.577350 0.577350 0.577350
vn -0.707107 0.707107 0.000000
vn -0.577350 -0.577350 -0.577350
vn -0.707107 0.000000 -0.707107
vn -0.577350 0.577350 -0.577350
vt 0.393261 0.112200
vt 0.398054 0.269266
vt 0.355606 0.271331
vt 0.358263 0.128769
vt 0.017099 0.540303
vt 0.012054 0.383255
vt 0.054496 0.381122
vt 0.052019 0.523634
vt 0.124740 0.530737
vt 0.113766 0.575708
vt 0.995049 0.067130
vt 0.995049 0.204221
vt 0.918324 0.204221
vt 0.918324 0.067130
vt 0.051809 0.128970
vt 0.016828 0.112476
vt 0.113543 0.074830
vt 0.124359 0.121544
vt 0.128754 0.382767
vt 0.405063 0.325876
vt 0.398242 0.382929
vt 0.355270 0.380929
vt 0.369049 0.325836
vt 0.004951 0.326660
vt 0.011678 0.269593
vt 0.054652 0.271525
vt 0.040964 0.326642
vt 0.995049 0.257761
vt 0.995049 0.311302
vt 0.918324 0.311302
vt 0.918324 0.257761
vt 0.076745 0.325995
vt 0.077094 0.304109
vt 0.106558 0.304090
vt 0.105980 0.326554
vt 0.128895 0.269647
vt 0.076507 0.348116
vt 0.105892 0.348758
vt 0.392834 0.540030
vt 0.357930 0.523435
vt 0.995049 0.448393
vt 0.918324 0.448393
vt 0.204988 0.537088
vt 0.285226 0.530637
vt 0.296262 0.575579
vt 0.205021 0.584416
vt 0.850632 0.204221
vt 0.782939 0.204221
vt 0.782939 0.067130
vt 0.850632 0.067130
vt 0.204989 0.067130
vt 0.296447 0.074700
vt 0.285696 0.121443
vt 0.205022 0.114910
vt 0.204909 0.386145
vt 0.281028 0.382712
vt 0.850632 0.311302
vt 0.782939 0.311302
vt 0.782939 0.257761
vt 0.850632 0.257761
vt 0.205070 0.278722
vt 0.269156 0.279749
vt 0.264069 0.326285
vt 0.205006 0.326169
vt 0.281346 0.269592
vt 0.205102 0.266170
vt 0.268932 0.372669
vt 0.204941 0.373602
vt 0.850632 0.448393
vt 0.782939 0.448393
vt 0.706214 0.204221
vt 0.706214 0.067130
vt 0.706214 0.311302
vt 0.706214 0.257761
vt 0.304156 0.303632
vt 0.333542 0.304312
vt 0.333267 0.326435
vt 0.304032 0.325837
vt 0.332881 0.348319
vt 0.303418 0.348299
vt 0.706214 0.448393
vt 0.141031 0.279686
vt 0.145943 0.326079
vt 0.140905 0.372605
vt 0.071069 0.298607
vt 0.068318 0.325798
vt 0.112667 0.297590
vt 0.140172 0.325935
vt 0.113729 0.326732
vt 0.070612 0.354072
vt 0.112181 0.354854
vt 0.339449 0.298361
vt 0.297879 0.297529
vt 0.341693 0.326639
vt 0.269839 0.326419
vt 0.296284 0.325655
vt 0.338895 0.353827
vt 0.297296 0.354792
g Cube
usemtl Default
f 4/1/4 15/2/15 13/3/13 3/4/3 
f 6/5/6 20/6/20 18/7/18 5/8/5 
f 6/5/6 5/8/5 50/9/50 41/10/41 
f 8/11/8 14/12/14 46/13/46 42/14/42 
f 7/15/7 8/16/8 42/17/42 43/18/43 
f 5/8/5 18/7/18 48/19/48 50/9/50 
f 9/20/9 17/21/17 19/22/19 10/23/10 
f 11/24/11 14/25/14 16/26/16 12/27/12 
f 11/28/11 20/29/20 49/30/49 44/31/44 
f 64/32/64 63/33/63 65/34/65 66/35/66 
f 15/2/15 9/20/9 10/23/10 13/3/13 
f 14/12/14 11/28/11 44/31/44 46/13/46 
f 14/25/14 8/16/8 7/15/7 16/26/16 
f 16/26/16 7/15/7 43/18/43 47/36/47 
f 20/6/20 11/24/11 12/27/12 18/7/18 
f 67/37/67 64/32/64 66/35/66 68/38/68 
f 17/21/17 2/39/2 1/40/1 19/22/19 
f 20/29/20 6/41/6 41/42/41 49/30/49 
f 21/43/21 31/44/31 32/45/32 22/46/22 
f 27/47/27 37/48/37 33/49/33 23/50/23 
f 23/51/23 33/52/33 34/53/34 24/54/24 
f 29/55/29 39/56/39 31/44/31 21/43/21 
f 30/57/30 40/58/40 35/59/35 25/60/25 
f 76/61/76 75/62/75 77/63/77 26/64/26 
f 25/60/25 35/59/35 37/48/37 27/47/27 
f 24/54/24 34/53/34 38/65/38 28/66/28 
f 26/64/26 77/63/77 78/67/78 79/68/79 
f 22/69/22 32/70/32 40/58/40 30/57/30 
f 31/44/31 1/40/1 2/39/2 32/45/32 
f 37/48/37 15/71/15 4/72/4 33/49/33 
f 33/52/33 4/1/4 3/4/3 34/53/34 
f 39/56/39 19/22/19 1/40/1 31/44/31 
f 40/58/40 17/73/17 9/74/9 35/59/35 
f 70/75/70 69/76/69 71/77/71 72/78/72 
f 35/59/35 9/74/9 15/71/15 37/48/37 
f 34/53/34 3/4/3 13/3/13 38/65/38 
f 72/78/72 71/77/71 73/79/73 74/80/74 
f 32/70/32 2/81/2 17/73/17 40/58/40 
f 50/9/50 21/43/21 22/46/22 41/10/41 
f 46/13/46 27/47/27 23/50/23 42/14/42 
f 42/17/42 23/51/23 24/54/24 43/18/43 
f 48/19/48 29/55/29 21/43/21 50/9/50 
f 49/30/49 30/57/30 25/60/25 44/31/44 
f 80/82/80 76/61/76 26/64/26 81/83/81 
f 44/31/44 25/60/25 27/47/27 46/13/46 
f 43/18/43 24/54/24 28/66/28 47/36/47 
f 81/83/81 26/64/26 79/68/79 82/84/82 
f 41/42/41 22/69/22 30/57/30 49/30/49 
f 12/27/12 16/26/16 51/85/51 52/86/52 
f 16/26/16 47/36/47 53/87/53 51/85/51 
f 47/36/47 45/88/45 54/89/54 53/87/53 
f 18/7/18 12/27/12 52/86/52 55/90/55 
f 45/88/45 48/19/48 56/91/56 54/89/54 
f 48/19/48 18/7/18 55/90/55 56/91/56 
f 38/65/38 13/3/13 57/92/57 58/93/58 
f 13/3/13 10/23/10 59/94/59 57/92/57 
f 36/95/36 38/65/38 58/93/58 60/96/60 
f 10/23/10 19/22/19 61/97/61 59/94/59 
f 19/22/19 39/56/39 62/98/62 61/97/61 
f 39/56/39 36/95/36 60/96/60 62/98/62 
f 52/86/52 51/85/51 63/33/63 64/32/64 
f 51/85/51 53/87/53 65/34/65 63/33/63 
f 53/87/53 54/89/54 66/35/66 65/34/65 
f 55/90/55 52/86/52 64/32/64 67/37/67 
f 54/89/54 56/91/56 68/38/68 66/35/66 
f 56/91/56 55/90/55 67/37/67 68/38/68 
f 58/93/58 57/92/57 69/76/69 70/75/70 
f 57/92/57 59/94/59 71/77/71 69/76/69 
f 60/96/60 58/93/58 70/75/70 72/78/72 
f 59/94/59 61/97/61 73/79/73 71/77/71 
f 61/97/61 62/98/62 74/80/74 73/79/73 
f 62/98/62 60/96/60 72/78/72 74/80/74 
f 28/66/28 38/65/38 75/62/75 76/61/76 
f 38/65/38 36/95/36 77/63/77 75/62/75 
f 36/95/36 39/56/39 78/67/78 77/63/77 
f 39/56/39 29/55/29 79/68/79 78/67/78 
f 47/36/47 28/66/28 76/61/76 80/82/80 
f 45/88/45 47/36/47 80/82/80 81/83/81 
f 29/55/29 48/19/48 82/84/82 79/68/79 
f 48/19/48 45/88/45 81/83/81 82/84/82 
v 0.409880 0.500000 -0.057020
v 0.409880 0.500000 -0.046357
v 0.355060 0.500000 -0.000000
v 0.409880 0.500000 0.046357
v 0.409880 0.500000 0.057020
v 0.416595 0.525325 -0.057020
v 0.416595 0.525325 -0.046357
v 0.416595 0.525325 -0.000000
v 0.416595 0.525325 0.046357
v 0.416595 0.525325 0.057020
v 0.434940 0.543864 -0.057020
v 0.434940 0.543864 -0.046357
v 0.434940 0.543864 -0.000000
v 0.434940 0.543864 0.046357
v 0.434940 0.543864 0.057020
v 0.460000 0.550650 -0.057020
v 0.460000 0.550650 -0.046357
v 0.460000 0.550650 0.000000
v 0.460000 0.550650 0.046357
v 0.460000 0.550650 0.057020
v 0.485060 0.543864 -0.057020
v 0.485060 0.543864 -0.046357
v 0.485060 0.543864 0.000000
v 0.485060 0.543864 0.046357
v 0.485060 0.543864 0.057020
v 0.485060 0.456136 -0.057020
v 0.485060 0.456136 -0.046357
v 0.485060 0.456136 -0.000000
v 0.485060 0.456136 0.046357
v 0.485060 0.456136 0.057020
v 0.460000 0.449350 -0.057020
v 0.460000 0.449350 -0.046357
v 0.460000 0.449350 -0.000000
v 0.460000 0.449350 0.046357
v 0.460000 0.449350 0.057020
v 0.434940 0.456136 -0.057020
v 0.434940 0.456136 -0.046357
v 0.434940 0.456136 -0.000000
v 0.434940 0.456136 0.046357
v 0.434940 0.456136 0.057020
v 0.416595 0.474675 -0.057020
v 0.416595 0.474675 -0.046357
v 0.416595 0.474675 -0.000000
v 0.416595 0.474675 0.046357
v 0.416595 0.474675 0.057020
v 0.460000 0.500000 0.057020
v 0.460000 0.500000 -0.057020
v 0.355060 0.500000 -0.044574
v 0.361871 0.521529 -0.044574
v 0.361871 0.521529 -0.000000
v 0.355060 0.500000 0.044574
v 0.361871 0.521529 0.044574
v 0.361871 0.478471 -0.044574
v 0.361871 0.478471 -0.000000
v 0.361871 0.478471 0.044574
vn -0.694997 0.000000 -0.719012
vn -0.707112 -0.000062 -0.707101
vn -1.000000 0.000000 0.000000
vn -0.707112 0.000063 0.707101
vn -0.694997 0.000000 0.719012
vn -0.603142 0.345064 -0.719132
vn -0.657902 0.705287 -0.264075
vn -0.416830 0.908985 0.000000
vn -0.657981 0.705230 0.264030
vn -0.603142 0.345064 0.719132
vn -0.349685 0.600182 -0.719377
vn -0.503418 0.864043 0.000000
vn -0.503418 0.864043 0.000000
vn -0.503418 0.864043 0.000000
vn -0.349684 0.600182 0.719377
vn 0.000000 0.694491 -0.719502
vn 0.000000 1.000000 0.000000
vn 0.000000 1.000000 0.000000
vn 0.000000 1.000000 0.000000
vn 0.000000 0.694491 0.719502
vn 0.184818 0.682526 -0.707107
vn 0.261372 0.965238 0.000000
vn 0.261372 0.965238 0.000000
vn 0.261372 0.965238 0.000000
vn 0.184818 0.682526 0.707107
vn 0.184817 -0.682527 -0.707107
vn 0.261370 -0.965239 0.000000
vn 0.261370 -0.965239 0.000000
vn 0.261370 -0.965239 0.000000
vn 0.184817 -0.682527 0.707107
vn 0.000000 -0.694491 -0.719502
vn 0.000000 -1.000000 0.000000
vn 0.000000 -1.000000 0.000000
vn 0.000000 -1.000000 0.000000
vn 0.000000 -0.694491 0.719502
vn -0.349683 -0.600182 -0.719377
vn -0.503417 -0.864044 0.000000
vn -0.503417 -0.864044 0.000000
vn -0.503417 -0.864044 0.000000
vn -0.349683 -0.600182 0.719377
vn -0.603141 -0.345064 -0.719132
vn -0.657981 -0.705230 -0.264030
vn -0.416830 -0.908984 0.000000
vn -0.657902 -0.705287 0.264075
vn -0.603141 -0.345064 0.719132
vn 0.000000 0.000000 1.000000
vn 0.000000 0.000000 -1.000000
vn -0.702407 -0.000063 -0.711775
vn -0.539668 0.668919 -0.511180
vn -0.618499 0.785786 0.000000
vn -0.702407 0.000063 0.711775
vn -0.539880 0.668850 0.511047
vn -0.539881 -0.668850 -0.511046
vn -0.618500 -0.785785 0.000000
vn -0.539669 -0.668919 0.511180
vt 0.683353 0.253423
vt 0.679476 0.310325
vt 0.656318 0.308747
vt 0.660195 0.251845
vt 0.202896 0.715146
vt 0.202896 0.764301
vt 0.105864 0.764301
vt 0.105864 0.715146
vt 0.008832 0.764301
vt 0.008832 0.715146
vt 0.454958 0.295027
vt 0.431801 0.293449
vt 0.435678 0.236547
vt 0.542108 0.650862
vt 0.556725 0.705991
vt 0.218094 0.705991
vt 0.232711 0.650862
vt 0.687213 0.196778
vt 0.664055 0.195200
vt 0.559515 0.244985
vt 0.563375 0.188340
vt 0.458836 0.238125
vt 0.462695 0.181480
vt 0.439537 0.179902
vt 0.502173 0.610504
vt 0.272647 0.610504
vt 0.691055 0.140392
vt 0.667897 0.138814
vt 0.567217 0.131954
vt 0.466537 0.125094
vt 0.443379 0.123516
vt 0.447621 0.595733
vt 0.327199 0.595733
vt 0.694897 0.084006
vt 0.671739 0.082428
vt 0.571059 0.075568
vt 0.470379 0.068708
vt 0.447221 0.067130
vt 0.393068 0.610504
vt 0.381751 0.610504
vt 0.667897 0.480259
vt 0.664055 0.536645
vt 0.640897 0.535067
vt 0.644739 0.478681
vt 0.540217 0.528207
vt 0.544059 0.471821
vt 0.439538 0.521347
vt 0.443380 0.464961
vt 0.416380 0.519769
vt 0.420222 0.463383
vt 0.447621 0.816249
vt 0.393068 0.801477
vt 0.447621 0.705991
vt 0.381751 0.801477
vt 0.327199 0.816249
vt 0.327199 0.705991
vt 0.671739 0.423872
vt 0.648581 0.422294
vt 0.547901 0.415434
vt 0.447222 0.408574
vt 0.424064 0.406996
vt 0.502173 0.801477
vt 0.272647 0.801477
vt 0.675599 0.367228
vt 0.652441 0.365650
vt 0.551761 0.358790
vt 0.451081 0.351929
vt 0.427923 0.350352
vt 0.542108 0.761120
vt 0.232711 0.761120
vt 0.202896 0.813456
vt 0.105864 0.813456
vt 0.008832 0.813456
vt 0.799884 0.729741
vt 0.744753 0.715132
vt 0.744753 0.595733
vt 0.791621 0.610551
vt 0.105864 0.595733
vt 0.206777 0.595733
vt 0.623173 0.610342
vt 0.678304 0.595733
vt 0.670042 0.714923
vt 0.623173 0.729741
vt 0.004951 0.595733
vt 0.689621 0.729741
vt 0.697884 0.610551
vt 0.206777 0.932870
vt 0.105864 0.932870
vt 0.004951 0.932870
vt 0.568042 0.595733
vt 0.576305 0.714923
g Cylinder
usemtl Default
f 88/99/88 83/100/83 84/101/84 89/102/89 
f 131/103/131 130/104/130 85/105/85 132/106/132 
f 132/106/132 85/105/85 133/107/133 134/108/134 
f 91/120/91 86/109/86 87/110/87 92/111/92 
f 92/112/92 87/113/87 128/151/128 
f 83/114/83 88/115/88 129/154/129 
f 93/116/93 88/99/88 89/102/89 94/117/94 
f 94/117/94 89/102/89 90/118/90 95/119/95 
f 95/119/95 90/118/90 91/120/91 96/121/96 
f 96/121/96 91/120/91 92/111/92 97/122/97 
f 97/123/97 92/112/92 128/151/128 
f 88/115/88 93/124/93 129/154/129 
f 98/125/98 93/116/93 94/117/94 99/126/99 
f 99/126/99 94/117/94 95/119/95 100/127/100 
f 100/127/100 95/119/95 96/121/96 101/128/101 
f 101/128/101 96/121/96 97/122/97 102/129/102 
f 102/130/102 97/123/97 128/151/128 
f 93/124/93 98/131/98 129/154/129 
f 103/132/103 98/125/98 99/126/99 104/133/104 
f 104/133/104 99/126/99 100/127/100 105/134/105 
f 105/134/105 100/127/100 101/128/101 106/135/106 
f 106/135/106 101/128/101 102/129/102 107/136/107 
f 107/137/107 102/130/102 128/151/128 
f 98/131/98 103/138/103 129/154/129 
f 113/139/113 108/140/108 109/141/109 114/142/114 
f 114/142/114 109/141/109 110/143/110 115/144/115 
f 115/144/115 110/143/110 111/145/111 116/146/116 
f 116/146/116 111/145/111 112/147/112 117/148/117 
f 117/149/117 112/150/112 128/151/128 
f 108/152/108 113/153/113 129/154/129 
f 118/155/118 113/139/113 114/142/114 119/156/119 
f 119/156/119 114/142/114 115/144/115 120/157/120 
f 120/157/120 115/144/115 116/146/116 121/158/121 
f 121/158/121 116/146/116 117/148/117 122/159/122 
f 122/160/122 117/149/117 128/151/128 
f 113/153/113 118/161/118 129/154/129 
f 123/162/123 118/155/118 119/156/119 124/163/124 
f 124/163/124 119/156/119 120/157/120 125/164/125 
f 125/164/125 120/157/120 121/158/121 126/165/126 
f 126/165/126 121/158/121 122/159/122 127/166/127 
f 127/167/127 122/160/122 128/151/128 
f 118/161/118 123/168/123 129/154/129 
f 83/100/83 123/162/123 124/163/124 84/101/84 
f 130/104/130 135/169/135 136/170/136 85/105/85 
f 85/105/85 136/170/136 137/171/137 133/107/133 
f 86/109/86 126/165/126 127/166/127 87/110/87 
f 87/113/87 127/167/127 128/151/128 
f 123/168/123 83/114/83 129/154/129 
f 89/172/89 84/173/84 130/174/130 131/175/131 
f 90/176/90 89/177/89 131/103/131 132/106/132 
f 86/178/86 91/179/91 134/180/134 133/181/133 
f 91/182/91 90/176/90 132/106/132 134/108/134 
f 84/173/84 124/183/124 135/184/135 130/174/130 
f 124/185/124 125/186/125 136/170/136 135/169/135 
f 125/186/125 126/187/126 137/171/137 136/170/136 
f 126/188/126 86/178/86 133/181/133 137/189/137 
