o column01.obj
v 0.236233 0.000000 0.250000
v -0.236233 0.000000 0.250000
v -0.236233 -0.000000 -0.250000
v 0.236233 -0.000000 -0.250000
v 0.236233 3.750000 0.250000
v 0.236233 3.750000 -0.250000
v -0.236233 3.750000 -0.250000
v -0.236233 3.750000 0.250000
v 0.256885 1.411409 -0.250000
v 0.256885 1.411412 0.250000
v 0.256885 1.051038 0.250000
v 0.256885 1.051038 -0.250000
v -0.236233 1.418299 -0.250000
v -0.236233 1.044148 -0.250000
v -0.236233 1.418299 0.250000
v -0.236233 1.044148 0.250000
v 0.203363 1.520903 -0.175000
v 0.203363 3.647395 -0.175000
v 0.203363 3.668060 -0.168115
v 0.203363 3.674949 -0.147465
v 0.203363 3.674949 0.147467
v 0.203363 3.668060 0.168118
v 0.203363 3.647395 0.175000
v 0.203363 1.520903 0.175000
v 0.203363 1.500237 0.168118
v 0.203363 1.493349 0.147467
v 0.203363 1.500237 -0.168115
v 0.203363 1.493349 -0.147465
v 0.203363 0.941546 0.175000
v 0.203363 0.102604 0.175000
v 0.203363 0.081938 0.168118
v 0.203363 0.075051 0.147467
v 0.203363 0.075051 -0.147465
v 0.203363 0.081938 -0.168115
v 0.203363 0.102604 -0.175000
v 0.203363 0.941546 -0.175000
v 0.203363 0.962210 -0.168115
v 0.203363 0.969098 -0.147465
v 0.203363 0.962210 0.168118
v 0.203363 0.969098 0.147467
v 0.263767 3.699966 0.172467
v 0.263767 3.699966 -0.172465
v 0.263767 1.495886 0.200000
v 0.263767 3.672412 0.200000
v 0.263767 1.468333 -0.172465
v 0.263767 1.468333 0.172467
v 0.263767 3.672412 -0.200000
v 0.263767 1.495886 -0.200000
v 0.263767 0.050034 -0.172465
v 0.263767 0.050034 0.172467
v 0.263767 0.966563 -0.200000
v 0.263767 0.077588 -0.200000
v 0.263767 0.994115 0.172467
v 0.263767 0.994115 -0.172465
v 0.263767 0.077588 0.200000
v 0.263767 0.966563 0.200000
v 0.263767 3.693076 -0.193115
v 0.263767 3.693076 0.193118
v 0.263767 1.475220 0.193118
v 0.263767 1.475220 -0.193115
v 0.263767 0.056921 0.193118
v 0.263767 0.056921 -0.193115
v 0.263767 0.987227 -0.193115
v 0.263767 0.987227 0.193118
vn 0.798971 -0.429374 0.421050
vn -0.577350 -0.577350 0.577350
vn -0.577350 -0.577350 -0.577350
vn 0.826736 -0.432991 -0.359202
vn 0.828943 0.431424 0.355986
vn 0.798356 0.427626 -0.423985
vn -0.577350 0.577350 -0.577350
vn -0.577350 0.577350 0.577350
vn 0.882121 -0.040663 -0.469265
vn 0.909221 -0.040832 0.414308
vn 0.883296 0.038916 0.467198
vn 0.907985 0.038859 -0.417198
vn -0.707107 0.000000 -0.707107
vn -0.707107 0.000000 -0.707107
vn -0.707107 0.000000 0.707107
vn -0.707107 0.000000 0.707107
vn 0.906935 0.066026 0.416064
vn 0.718626 -0.109001 0.686801
vn 0.772503 -0.448916 0.449126
vn 0.906976 -0.415963 0.066101
vn 0.718755 -0.686648 -0.109116
vn 0.772507 -0.448887 -0.449147
vn 0.906933 -0.066012 -0.416071
vn 0.718615 0.108957 -0.686819
vn 0.772511 0.448902 -0.449125
vn 0.906973 0.415973 -0.066080
vn 0.772508 0.448930 0.449103
vn 0.718746 0.686663 0.109082
vn 0.906933 -0.066012 -0.416071
vn 0.718615 0.108956 -0.686819
vn 0.772511 0.448901 -0.449126
vn 0.906973 0.415973 -0.066081
vn 0.718746 0.686662 0.109082
vn 0.772508 0.448929 0.449104
vn 0.906935 0.066026 0.416064
vn 0.718627 -0.109002 0.686800
vn 0.772506 -0.448936 0.449099
vn 0.906973 -0.415972 0.066083
vn 0.772510 -0.448908 -0.449121
vn 0.718746 -0.686661 -0.109085
vn 0.940720 -0.333972 -0.059236
vn 0.940719 -0.333973 0.059237
vn 0.877372 0.080421 -0.473024
vn 0.907141 -0.051861 -0.417619
vn 0.873327 0.480880 0.077809
vn 0.873327 0.480879 -0.077808
vn 0.940033 -0.056270 0.336409
vn 0.911187 0.086528 0.402803
vn 0.940719 0.333976 0.059218
vn 0.940720 0.333975 -0.059217
vn 0.879180 -0.084012 0.469025
vn 0.909303 0.048557 0.413292
vn 0.873328 -0.480879 -0.077812
vn 0.873328 -0.480879 0.077812
vn 0.939151 0.052665 -0.339444
vn 0.909839 -0.089409 -0.405214
vn 0.947287 -0.226509 0.226585
vn 0.947291 -0.226491 -0.226588
vn 0.898812 0.310370 -0.309526
vn 0.898809 0.310393 0.309515
vn 0.947295 0.226488 -0.226573
vn 0.947292 0.226506 0.226570
vn 0.898807 -0.310398 0.309513
vn 0.898811 -0.310376 -0.309525
vt 1.000000 1.000000
vt 0.000000 1.000000
vt -0.007000 0.006800
vt -0.007800 0.006000
vt 1.000000 1.000000
vt 0.000000 1.000000
vt 0.944900 0.571000
vt 0.000000 0.560600
vt 0.013800 0.431600
vt 1.000000 0.571000
vt 0.039800 0.549900
vt 0.000000 0.417600
vt 1.000000 0.429000
vt 1.000000 0.571000
vt 0.000000 0.571000
vt 0.000000 0.429000
vt 1.000000 0.429000
vt 1.000000 0.578500
vt 0.000000 0.571000
vt 0.000000 0.429000
vt 1.000000 0.579300
vt 1.000000 0.991800
vt 0.980300 0.997900
vt 0.921300 1.000000
vt 0.078700 1.000000
vt 0.019700 0.997900
vt 0.000000 0.991800
vt 0.000000 0.579300
vt 0.019700 0.573100
vt 0.078700 0.571000
vt 0.980300 0.573100
vt 0.921300 0.571000
vt 0.000000 0.415700
vt 0.000000 0.013200
vt 0.019700 0.003300
vt 0.078700 0.000000
vt 0.921300 0.000000
vt 0.980300 0.003300
vt 1.000000 0.013200
vt 1.000000 0.415700
vt 0.980300 0.425700
vt 0.921300 0.429000
vt 0.019700 0.425700
vt 0.078700 0.429000
vt 1.000000 1.000000
vt 0.055100 1.000000
vt 1.000000 0.000000
vt 1.000000 1.000000
vt 0.000000 1.000000
vt 0.000000 0.000000
vt 1.000000 0.000000
vt 0.000000 1.000000
vt 0.000000 0.000000
vt 0.944900 0.000000
vt 0.068800 1.000000
vt 0.931200 1.000000
vt 0.000000 0.579000
vt 0.000000 0.992000
vt 0.931200 0.571000
vt 0.068800 0.571000
vt 1.000000 0.992000
vt 1.000000 0.579000
vt 0.931200 0.000000
vt 0.068800 0.000000
vt 1.000000 0.416400
vt 1.000000 0.012500
vt 0.068800 0.429000
vt 0.931200 0.429000
vt 0.000000 0.012500
vt 0.000000 0.416400
vt 0.944900 0.000000
vt 0.956300 1.275300
vt 0.981400 1.550700
vt 1.000000 0.992500
vt -1.020600 0.981300
vt -2.041200 0.970500
vt 0.017400 0.571000
vt 0.043700 0.571000
vt 0.018600 0.571000
vt 1.743100 0.594700
vt 2.020600 0.589800
vt 3.041200 0.600600
vt 0.944900 0.000000
vt 0.324400 0.000000
vt 0.579900 0.000000
vt 0.000000 0.011300
vt 1.462400 -0.166000
vt 1.924800 -0.344600
vt 0.944900 0.429000
vt 0.951000 0.429000
vt 0.970800 0.429000
vt 0.992700 0.438700
vt -0.649400 0.407900
vt -1.298800 0.399400
vt 0.965600 0.996000
vt 0.034400 0.996000
vt 0.034400 0.575000
vt 0.965600 0.575000
vt 0.034400 0.006300
vt 0.965600 0.006300
vt 0.965600 0.422700
vt 0.034400 0.422700
vt 0.043700 0.571000
vt 2.020600 0.589800
g Box004
f 1/83/1 2/1/2 3/2/3 4/3/4 
f 5/4/5 6/71/6 7/5/7 8/6/8 
f 9/7/9 10/8/10 11/9/11 12/89/12 
f 13/10/13 9/11/9 12/12/12 14/13/14 
f 15/14/15 13/15/13 14/16/14 16/17/16 
f 10/18/10 15/19/15 16/20/16 11/92/11 
f 17/21/17 18/22/18 19/23/19 20/24/20 
f 20/24/20 21/25/21 22/26/22 23/27/23 
f 23/27/23 24/28/24 25/29/25 26/30/26 
f 20/24/20 23/27/23 26/30/26 17/21/17 
f 27/31/27 17/21/17 26/30/26 28/32/28 
f 29/33/29 30/34/30 31/35/31 32/36/32 
f 32/36/32 33/37/33 34/38/34 35/39/35 
f 35/39/35 36/40/36 37/41/37 38/42/38 
f 32/36/32 35/39/35 38/42/38 29/33/29 
f 39/43/39 29/33/29 38/42/38 40/44/40 
f 7/45/7 6/46/6 9/11/9 13/10/13 
f 4/86/4 3/47/3 14/13/14 12/12/12 
f 8/48/8 7/49/7 13/15/13 15/14/15 
f 3/50/3 2/51/2 16/17/16 14/16/14 
f 5/74/5 8/52/8 15/19/15 10/18/10 
f 2/53/2 1/54/1 11/92/11 16/20/16 
f 6/71/6 5/4/5 41/55/41 42/56/42 
f 5/74/5 10/18/10 43/57/43 44/58/44 
f 10/8/10 9/7/9 45/59/45 46/60/46 
f 9/11/9 6/46/6 47/61/47 48/62/48 
f 1/83/1 4/3/4 49/63/49 50/64/50 
f 4/86/4 12/12/12 51/65/51 52/66/52 
f 12/89/12 11/9/11 53/67/53 54/68/54 
f 11/92/11 1/54/1 55/69/55 56/70/56 
f 42/56/42 41/55/41 21/25/21 20/24/20 
f 44/58/44 43/57/43 24/28/24 23/27/23 
f 46/60/46 45/59/45 28/32/28 26/30/26 
f 48/62/48 47/61/47 18/22/18 17/21/17 
f 50/64/50 49/63/49 33/37/33 32/36/32 
f 52/66/52 51/65/51 36/40/36 35/39/35 
f 54/68/54 53/67/53 40/44/40 38/42/38 
f 56/70/56 55/69/55 30/34/30 29/33/29 
f 6/71/6 57/72/57 47/73/47 
f 5/74/5 58/75/58 41/76/41 
f 10/77/10 59/78/59 43/79/43 
f 9/80/9 60/81/60 45/82/45 
f 1/83/1 61/84/61 55/85/55 
f 4/86/4 62/87/62 49/88/49 
f 12/89/12 63/90/63 51/91/51 
f 11/92/11 64/93/64 53/94/53 
f 19/23/19 18/22/18 47/61/47 57/95/57 
f 22/26/22 21/25/21 41/55/41 58/96/58 
f 25/29/25 24/28/24 43/57/43 59/97/59 
f 27/31/27 28/32/28 45/59/45 60/98/60 
f 31/35/31 30/34/30 55/69/55 61/99/61 
f 34/38/34 33/37/33 49/63/49 62/100/62 
f 37/41/37 36/40/36 51/65/51 63/101/63 
f 39/43/39 40/44/40 53/67/53 64/102/64 
f 6/71/6 42/56/42 57/72/57 
f 5/74/5 44/58/44 58/75/58 
f 10/8/10 46/60/46 59/103/59 
f 9/11/9 48/62/48 60/104/60 
f 1/83/1 50/64/50 61/84/61 
f 4/86/4 52/66/52 62/87/62 
f 12/89/12 54/68/54 63/90/63 
f 11/92/11 56/70/56 64/93/64 
f 20/24/20 19/23/19 57/95/57 42/56/42 
f 23/27/23 22/26/22 58/96/58 44/58/44 
f 26/30/26 25/29/25 59/97/59 46/60/46 
f 17/21/17 27/31/27 60/98/60 48/62/48 
f 32/36/32 31/35/31 61/99/61 50/64/50 
f 35/39/35 34/38/34 62/100/62 52/66/52 
f 38/42/38 37/41/37 63/101/63 54/68/54 
f 29/33/29 39/43/39 64/102/64 56/70/56 
