o column03.obj
v -0.796671 1.417575 0.659234
v -0.997626 1.417575 0.242510
v -0.997626 1.042618 0.242510
v -0.796671 1.042618 0.659234
v -0.449635 1.417575 0.898397
v -0.449635 1.042618 0.898397
v 0.000002 1.417575 1.000000
v 0.000002 1.042618 1.000000
v -0.722705 0.000000 0.600327
v -0.905390 0.000000 0.221488
v -0.905390 0.000000 0.000000
v 0.000000 0.000000 0.000000
v 0.000000 0.000000 0.903704
v -0.408586 0.000000 0.813274
v 0.000000 3.750000 0.000000
v -0.905390 3.750000 0.000000
v -0.905390 3.750000 0.221488
v -0.408586 3.750000 0.813274
v -0.722705 3.750000 0.600327
v 0.000000 3.750000 0.903704
v -0.999998 1.417575 0.000000
v -0.999998 1.042618 0.000000
v 0.000000 1.042618 0.000000
v -0.905390 1.042618 0.000000
v -0.905390 1.417575 0.000000
v 0.000000 1.417575 0.000000
v -0.663880 3.571914 0.553478
v -0.832038 3.571914 0.204770
v -0.832038 1.492566 0.204770
v -0.663880 1.492566 0.553478
v -0.832038 0.232870 0.204770
v -0.663880 0.232870 0.553478
v -0.663880 0.967627 0.553478
v -0.832038 0.967627 0.204770
v -0.375937 3.571914 0.745576
v -0.375937 1.492566 0.745576
v -0.375937 0.232870 0.745576
v -0.375937 0.967627 0.745576
v 0.000000 3.571914 0.828565
v 0.000000 1.492566 0.828565
v 0.000000 0.232870 0.828565
v 0.000000 0.967627 0.828565
v -0.830152 3.571914 0.094479
v -0.830152 1.492566 0.094479
v -0.830152 0.232870 0.094479
v -0.830152 0.967627 0.094479
v 0.000000 0.157878 0.000000
v -0.905390 0.157878 0.000000
v -0.905390 3.646905 0.000000
v 0.000000 3.646905 0.000000
v 0.000000 1.417575 0.903704
v -0.408586 1.417575 0.813274
v -0.722705 1.417575 0.600327
v -0.905390 1.417575 0.221488
v -0.905390 1.042618 0.221488
v -0.722705 1.042618 0.600327
v -0.408586 1.042618 0.813274
v 0.000000 1.042618 0.903704
v -0.722705 0.157878 0.600327
v -0.905390 0.157878 0.221488
v -0.408586 0.157878 0.813274
v 0.000000 0.157878 0.903704
v -0.905390 3.646905 0.221488
v -0.722705 3.646905 0.600327
v -0.408586 3.646905 0.813274
v 0.000000 3.646905 0.903704
v -0.408586 3.596911 0.813274
v 0.000000 3.596911 0.903704
v -0.722705 3.596911 0.600327
v -0.905390 3.596911 0.221488
v -0.905390 3.596911 0.062986
v -0.905390 1.467569 0.062986
v -0.905390 1.467569 0.221488
v -0.722705 1.467569 0.600327
v -0.408586 1.467569 0.813274
v 0.000000 1.467569 0.903704
v -0.905390 0.207874 0.062986
v -0.905390 0.992623 0.062986
v -0.905390 0.207874 0.221488
v -0.722705 0.207874 0.600327
v -0.408586 0.207874 0.813274
v 0.000000 0.207874 0.903704
v -0.408586 0.992623 0.813274
v 0.000000 0.992623 0.903704
v -0.722705 0.992623 0.600327
v -0.905390 0.992623 0.221488
vn -0.527815 0.718998 0.452165
vn -0.680126 0.715661 0.158927
vn -0.680126 -0.715661 0.158927
vn -0.527815 -0.718998 0.452165
vn -0.281086 0.713537 0.641760
vn -0.281086 -0.713537 0.641760
vn 0.487326 0.625105 0.609719
vn 0.893511 -0.321455 0.313536
vn -0.525801 -0.719353 0.453943
vn -0.867432 -0.456365 0.198226
vn -0.577350 -0.577350 -0.577350
vn 0.801784 -0.534522 -0.267261
vn 0.489195 -0.624049 0.609304
vn -0.352599 -0.453663 0.818452
vn 0.408248 0.816497 -0.408248
vn -0.577350 0.577350 -0.577350
vn -0.680510 0.716047 0.155510
vn -0.216744 0.836604 0.503106
vn -0.672175 0.459804 0.580312
vn 0.489195 0.624049 0.609304
vn -0.579214 0.579242 -0.573576
vn -0.579214 -0.579242 -0.573576
vn 0.447214 0.000000 -0.894427
vn -0.534522 -0.267261 -0.801784
vn -0.534522 0.267261 -0.801784
vn 0.707107 0.000000 -0.707107
vn -0.606920 -0.594360 0.527621
vn -0.785347 -0.593909 0.174647
vn -0.786577 0.592349 0.174414
vn -0.606235 0.596550 0.525935
vn -0.786571 0.592357 0.174412
vn -0.606231 0.596557 0.525932
vn -0.606918 -0.594364 0.527619
vn -0.785345 -0.593912 0.174647
vn -0.318322 -0.587195 0.744226
vn -0.317134 0.589559 0.742864
vn -0.317132 0.589566 0.742858
vn -0.318321 -0.587199 0.744224
vn 0.918276 -0.233929 0.319445
vn 0.861347 0.300328 0.409736
vn 0.730904 0.403470 0.550447
vn 0.918278 -0.233931 0.319439
vn -0.791970 -0.441772 0.421451
vn -0.793626 0.439671 0.420532
vn -0.793622 0.439676 0.420535
vn -0.791968 -0.441774 0.421452
vn 0.832050 0.000000 -0.554700
vn -0.832050 0.000000 -0.554700
vn -0.832050 0.000000 -0.554700
vn 0.832050 0.000000 -0.554700
vn 0.787185 0.441271 0.430836
vn -0.277248 0.713428 0.643548
vn -0.525801 0.719353 0.453943
vn -0.680510 0.716047 0.155510
vn -0.680510 -0.716047 0.155510
vn -0.525801 -0.719353 0.453943
vn -0.277248 -0.713428 0.643548
vn 0.787185 -0.441272 0.430836
vn -0.756936 0.000000 0.653489
vn -0.974869 0.000000 0.222778
vn -0.395657 0.000000 0.918398
vn 0.626061 0.000000 0.779774
vn -0.974869 0.000000 0.222778
vn -0.756936 0.000000 0.653489
vn -0.395657 0.000000 0.918398
vn 0.626061 0.000000 0.779774
vn -0.320503 -0.587383 0.743141
vn 0.407202 -0.539651 0.736860
vn -0.608559 -0.594069 0.526059
vn -0.784620 -0.593324 0.179828
vn -0.898024 -0.315471 0.306646
vn -0.898720 0.314054 0.306059
vn -0.785850 0.591767 0.179588
vn -0.607876 0.596256 0.524371
vn -0.319320 0.589748 0.741776
vn 0.407389 0.539924 0.736557
vn -0.898719 0.314057 0.306060
vn -0.898023 -0.315472 0.306647
vn -0.785845 0.591774 0.179586
vn -0.607872 0.596264 0.524367
vn -0.319318 0.589756 0.741771
vn 0.407393 0.539930 0.736550
vn -0.320502 -0.587387 0.743139
vn 0.407204 -0.539654 0.736857
vn -0.608557 -0.594073 0.526057
vn -0.784618 -0.593327 0.179827
vt 0.607100 0.562500
vt 0.535700 0.562500
vt 0.535700 0.437500
vt 0.607100 0.437500
vt 0.678600 0.562500
vt 0.678600 0.437500
vt 0.750000 0.562500
vt 0.750000 0.437500
vt 0.890900 0.811700
vt 0.987500 0.611300
vt 0.987500 0.494000
vt 0.500000 0.494000
vt 0.500000 1.000000
vt 0.716900 0.950500
vt 0.500000 0.494000
vt 0.987500 0.494000
vt 0.987500 0.611300
vt 0.716900 0.950500
vt 0.890900 0.811700
vt 0.500000 1.000000
vt 0.498100 0.562500
vt 0.498100 0.437500
vt 0.774200 0.343800
vt 0.793100 0.889800
vt 0.814800 0.872400
vt 0.713300 0.267400
vt 0.607100 0.781300
vt 0.535700 0.781300
vt 0.535700 0.562500
vt 0.607100 0.562500
vt 0.535700 0.218800
vt 0.607100 0.218800
vt 0.607100 0.437500
vt 0.535700 0.437500
vt 0.678600 0.781300
vt 0.678600 0.562500
vt 0.678600 0.218800
vt 0.678600 0.437500
vt 0.750000 0.781300
vt 0.750000 0.562500
vt 0.750000 0.218800
vt 0.750000 0.437500
vt 0.498100 0.781300
vt 0.498100 0.562500
vt 0.498100 0.218800
vt 0.498100 0.437500
vt 0.755000 0.920100
vt 0.852900 0.842100
vt 0.606600 0.133700
vt 0.750000 0.562500
vt 0.678600 0.562500
vt 0.607100 0.562500
vt 0.535700 0.562500
vt 0.498100 0.562500
vt 0.498100 0.437500
vt 0.535700 0.437500
vt 0.607100 0.437500
vt 0.678600 0.437500
vt 0.750000 0.437500
vt 0.535700 0.000000
vt 0.607100 0.000000
vt 0.607100 0.218800
vt 0.535700 0.218800
vt 0.678600 0.000000
vt 0.678600 0.218800
vt 0.750000 0.000000
vt 0.750000 0.218800
vt 0.498100 0.000000
vt 0.498100 0.218800
vt 0.987500 0.611300
vt 0.716900 0.950500
vt 0.607100 1.000000
vt 0.535700 1.000000
vt 0.535700 0.781300
vt 0.607100 0.781300
vt 0.678600 1.000000
vt 0.678600 0.781300
vt 0.750000 1.000000
vt 0.750000 0.781300
vt 0.498100 1.000000
vt 0.498100 0.781300
vt 0.890900 0.811700
vt 0.500000 0.000000
vt 0.678600 0.781300
vt 0.750000 0.781300
vt 0.607100 0.781300
vt 0.535700 0.781300
vt 0.498100 0.781300
vt 0.498100 0.562500
vt 0.535700 0.562500
vt 0.607100 0.562500
vt 0.678600 0.562500
vt 0.750000 0.562500
vt 0.498100 0.218800
vt 0.498100 0.437500
vt 0.535700 0.218800
vt 0.607100 0.218800
vt 0.678600 0.218800
vt 0.750000 0.218800
vt 0.678600 0.437500
vt 0.750000 0.437500
vt 0.607100 0.437500
vt 0.535700 0.437500
vt 0.500000 0.494000
vt 0.880800 0.477500
vt 0.500000 1.000000
g MOD_CylindricalCornerPiece
f 1/1/1 2/2/2 3/3/3 4/4/4 
f 5/5/5 1/1/1 4/4/4 6/6/6 
f 7/7/7 5/5/5 6/6/6 8/8/8 
f 9/9/9 10/10/10 11/11/11 12/12/12 
f 9/9/9 12/12/12 13/13/13 14/14/14 
f 15/15/15 16/16/16 17/17/17 18/18/18 
f 17/17/17 19/19/19 18/18/18 
f 20/20/20 15/15/15 18/18/18 
f 2/2/2 21/21/21 22/22/22 3/3/3 
f 23/23/23 24/24/24 25/25/25 26/26/26 
f 27/27/27 28/28/28 29/29/29 30/30/30 
f 31/31/31 32/32/32 33/33/33 34/34/34 
f 35/35/35 27/27/27 30/30/30 36/36/36 
f 32/32/32 37/37/37 38/38/38 33/33/33 
f 39/39/39 35/35/35 36/36/36 40/40/40 
f 37/37/37 41/41/41 42/42/42 38/38/38 
f 28/28/28 43/43/43 44/44/44 29/29/29 
f 45/45/45 31/31/31 34/34/34 46/46/46 
f 47/105/47 48/47/48 24/24/24 23/23/23 
f 49/48/49 50/49/50 26/26/26 25/25/25 
f 51/50/51 52/51/52 5/5/5 7/7/7 
f 52/51/52 53/52/53 1/1/1 5/5/5 
f 53/52/53 54/53/54 2/2/2 1/1/1 
f 54/53/54 25/54/25 21/21/21 2/2/2 
f 25/25/25 24/24/24 22/22/22 21/21/21 
f 24/55/24 55/56/55 3/3/3 22/22/22 
f 55/56/55 56/57/56 4/4/4 3/3/3 
f 56/57/56 57/58/57 6/6/6 4/4/4 
f 57/58/57 58/59/58 8/8/8 6/6/6 
f 10/60/10 9/61/9 59/62/59 60/63/60 
f 9/61/9 14/64/14 61/65/61 59/62/59 
f 14/64/14 13/66/13 62/67/62 61/65/61 
f 11/68/11 10/60/10 60/63/60 48/69/48 
f 12/70/12 11/71/11 48/47/48 47/105/47 
f 19/72/19 17/73/17 63/74/63 64/75/64 
f 18/76/18 19/72/19 64/75/64 65/77/65 
f 20/78/20 18/76/18 65/77/65 66/79/66 
f 17/73/17 16/80/16 49/81/49 63/74/63 
f 16/82/16 15/83/15 50/49/50 49/48/49 
f 66/79/66 65/77/65 67/84/67 68/85/68 
f 65/77/65 64/75/64 69/86/69 67/84/67 
f 64/75/64 63/74/63 70/87/70 69/86/69 
f 63/74/63 49/81/49 71/88/71 70/87/70 
f 49/48/49 25/25/25 72/89/72 71/88/71 
f 25/54/25 54/53/54 73/90/73 72/89/72 
f 54/53/54 53/52/53 74/91/74 73/90/73 
f 53/52/53 52/51/52 75/92/75 74/91/74 
f 52/51/52 51/50/51 76/93/76 75/92/75 
f 24/24/24 48/47/48 77/94/77 78/95/78 
f 48/69/48 60/63/60 79/96/79 77/94/77 
f 60/63/60 59/62/59 80/97/80 79/96/79 
f 59/62/59 61/65/61 81/98/81 80/97/80 
f 61/65/61 62/67/62 82/99/82 81/98/81 
f 58/59/58 57/58/57 83/100/83 84/101/84 
f 57/58/57 56/57/56 85/102/85 83/100/83 
f 56/57/56 55/56/55 86/103/86 85/102/85 
f 55/56/55 24/55/24 78/95/78 86/103/86 
f 68/85/68 67/84/67 35/35/35 39/39/39 
f 67/84/67 69/86/69 27/27/27 35/35/35 
f 69/86/69 70/87/70 28/28/28 27/27/27 
f 70/87/70 71/88/71 43/43/43 28/28/28 
f 71/88/71 72/89/72 44/44/44 43/43/43 
f 72/89/72 73/90/73 29/29/29 44/44/44 
f 73/90/73 74/91/74 30/30/30 29/29/29 
f 74/91/74 75/92/75 36/36/36 30/30/30 
f 75/92/75 76/93/76 40/40/40 36/36/36 
f 78/95/78 77/94/77 45/45/45 46/46/46 
f 77/94/77 79/96/79 31/31/31 45/45/45 
f 79/96/79 80/97/80 32/32/32 31/31/31 
f 80/97/80 81/98/81 37/37/37 32/32/32 
f 81/98/81 82/99/82 41/41/41 37/37/37 
f 84/101/84 83/100/83 38/38/38 42/42/42 
f 83/100/83 85/102/85 33/33/33 38/38/38 
f 85/102/85 86/103/86 34/34/34 33/33/33 
f 86/103/86 78/95/78 46/46/46 34/34/34 
f 66/79/66 68/85/68 39/39/39 50/49/50 
f 40/40/40 76/93/76 51/50/51 8/8/8 
f 51/50/51 7/7/7 8/8/8 
f 40/40/40 8/8/8 58/59/58 42/42/42 
f 58/59/58 84/101/84 42/42/42 
f 41/41/41 82/99/82 62/67/62 12/104/12 
f 62/67/62 13/66/13 12/104/12 
f 42/42/42 41/41/41 12/104/12 47/105/47 
f 40/40/40 42/42/42 47/105/47 39/39/39 
f 39/39/39 47/105/47 23/23/23 26/26/26 
f 39/39/39 26/26/26 50/49/50 
f 66/79/66 50/49/50 15/83/15 20/106/20 
