o desk01.obj
v 0.494062 0.945358 0.091969
v 0.494062 0.945358 0.407790
v -0.494062 0.945358 0.407790
v -0.494062 0.945358 0.091969
v 0.494062 1.500000 0.499573
v 0.494062 1.500000 0.407790
v -0.494062 1.500000 0.407790
v -0.494062 1.500000 0.499573
v 0.494062 0.945358 0.499573
v 0.494062 1.091658 0.499573
v -0.494062 1.091658 0.499573
v -0.494062 0.945358 0.499573
v 0.750000 0.945358 0.407790
v 0.750000 1.091658 0.407790
v 0.750000 1.091658 0.499573
v 0.750000 0.945358 0.499573
v -0.750000 0.945358 -0.408577
v -0.750000 1.091658 -0.408577
v -0.750000 1.091658 -0.500427
v -0.750000 0.945358 -0.500427
v 0.750000 0.945358 -0.408577
v 0.750000 1.091658 -0.408577
v 0.750000 1.091658 0.091969
v 0.750000 0.945358 0.091969
v -0.750000 0.945358 0.407790
v -0.750000 1.091658 0.407790
v -0.750000 1.091658 0.091969
v -0.750000 0.945358 0.091969
v 0.664687 1.500000 0.499573
v 0.664687 1.500000 0.407790
v 0.579375 1.500000 0.407790
v 0.579375 1.500000 0.499573
v -0.664687 1.500000 0.091969
v -0.664687 1.500000 0.407790
v -0.579375 1.500000 0.407790
v -0.579375 1.500000 0.091969
v 0.664687 0.945358 0.499573
v 0.664687 1.091658 0.499573
v 0.579375 1.091658 0.499573
v 0.579375 0.945358 0.499573
v -0.664687 1.500000 0.499573
v -0.664687 1.091658 0.499573
v -0.579375 1.091658 0.499573
v -0.579375 1.500000 0.499573
v -0.664687 0.945358 -0.500427
v -0.664687 1.091658 -0.500427
v -0.579375 1.091658 -0.500427
v -0.579375 0.945358 -0.500427
v 0.664687 1.500000 -0.500427
v 0.664687 1.091658 -0.500427
v 0.579375 1.091658 -0.500427
v 0.579375 1.500000 -0.500427
v -0.664687 1.500000 -0.500427
v -0.664687 1.500000 -0.408577
v -0.579375 1.500000 -0.408577
v -0.579375 1.500000 -0.500427
v 0.664687 1.500000 0.091969
v 0.664687 1.500000 -0.408577
v 0.579375 1.500000 -0.408577
v 0.579375 1.500000 0.091969
v 0.750000 1.500000 0.091969
v 0.750000 1.500000 0.407790
v -0.750000 1.500000 0.091969
v -0.750000 1.500000 -0.408577
v 0.750000 1.500000 -0.500427
v 0.750000 1.500000 -0.408577
v 0.750000 1.091658 -0.500427
v -0.750000 1.500000 0.499573
v -0.750000 1.500000 0.407790
v -0.750000 1.091658 0.499573
v -0.579375 0.945358 0.499573
v -0.664687 0.945358 0.499573
v 0.579375 0.945358 -0.500427
v 0.664687 0.945358 -0.500427
v 0.494062 1.500000 0.091969
v 0.494062 1.092031 0.091969
v -0.494062 1.091631 0.091969
v -0.494062 1.500000 0.091969
v -0.494062 1.500000 -0.408577
v -0.494062 1.091645 -0.408577
v -0.494062 1.091658 -0.500427
v -0.494062 1.500000 -0.500427
v 0.494062 1.500000 -0.408577
v 0.494062 1.091845 -0.408577
v 0.494062 1.091658 -0.500427
v -0.494062 0.945358 -0.408577
v 0.494062 0.945358 -0.408577
v 0.494062 0.945358 -0.500427
v -0.494062 0.945358 -0.500427
v 0.664687 0.945358 0.407790
v 0.664687 0.945358 0.091969
v 0.579375 0.945358 0.407790
v -0.750000 0.945358 0.499573
v -0.664687 0.945358 0.407790
v -0.579375 0.945358 0.407790
v -0.579375 0.945358 0.091969
v 0.750000 1.500000 0.499573
v 0.494062 1.500000 -0.500427
v 0.750000 0.945358 -0.500427
v 0.664687 0.945358 -0.408577
v 0.579375 0.945358 -0.408577
v 0.579375 0.945358 0.091969
v -0.664687 0.945358 -0.408577
v -0.664687 0.945358 0.091969
v -0.579375 0.945358 -0.408577
v -0.750000 1.500000 -0.500427
v 0.579375 0.000000 0.499573
v 0.664687 0.000000 0.499573
v 0.664687 0.094452 0.499573
v 0.579375 0.094452 0.499573
v 0.664687 0.000000 -0.500427
v 0.579375 0.000000 -0.500427
v 0.579375 0.094452 -0.500427
v 0.664687 0.094452 -0.500427
v 0.664687 0.000000 -0.408577
v 0.664687 0.094452 -0.408577
v -0.579375 0.000000 -0.500427
v -0.664687 0.000000 -0.500427
v -0.664687 0.094452 -0.500427
v -0.579375 0.094452 -0.500427
v -0.579375 0.000000 -0.408577
v -0.579375 0.094452 -0.408577
v -0.664687 0.000000 0.499573
v -0.579375 0.000000 0.499573
v -0.579375 0.094452 0.499573
v -0.664687 0.094452 0.499573
v -0.664687 0.000000 0.407790
v -0.664687 0.094452 0.407790
v 0.664687 0.000000 0.407790
v 0.664687 0.094452 0.407790
v 0.579375 0.000000 -0.408577
v 0.579375 0.094452 -0.408577
v -0.664687 0.000000 -0.408577
v -0.664687 0.094452 -0.408577
v 0.579375 0.094452 0.407790
v -0.579375 0.094452 0.407790
v -0.579375 0.000000 0.407790
v 0.579375 0.000000 0.407790
vn 0.000000 -1.000000 0.000000
vn 0.000000 -1.000000 0.000000
vn 0.000000 -1.000000 0.000000
vn 0.000000 -1.000000 0.000000
vn 0.000000 0.707107 0.707107
vn 0.000000 1.000000 0.000000
vn 0.000000 1.000000 0.000000
vn 0.000000 0.707107 0.707107
vn 0.000000 -0.707107 0.707107
vn 0.000000 0.000000 1.000000
vn 0.000000 0.000000 1.000000
vn 0.000000 -0.707107 0.707107
vn 0.707107 -0.707107 0.000000
vn 1.000000 0.000000 0.000000
vn 0.707107 0.000000 0.707107
vn 0.577350 -0.577350 0.577350
vn -0.707107 -0.707107 0.000000
vn -1.000000 0.000000 0.000000
vn -0.707107 0.000000 -0.707107
vn -0.577350 -0.577350 -0.577350
vn 0.707107 -0.707107 0.000000
vn 1.000000 0.000000 0.000000
vn 1.000000 0.000000 0.000000
vn 0.707107 -0.707107 0.000000
vn -0.707107 -0.707107 0.000000
vn -1.000000 0.000000 0.000000
vn -1.000000 0.000000 0.000000
vn -0.707107 -0.707107 0.000000
vn 0.000000 0.707107 0.707107
vn 0.000000 1.000000 0.000000
vn 0.000000 1.000000 0.000000
vn 0.000000 0.707107 0.707107
vn 0.000000 1.000000 0.000000
vn 0.000000 1.000000 0.000000
vn 0.000000 1.000000 0.000000
vn 0.000000 1.000000 0.000000
vn 0.301511 -0.301511 0.904534
vn 0.000000 0.000000 1.000000
vn 0.000000 0.000000 1.000000
vn -0.301511 -0.301511 0.904534
vn 0.000000 0.707107 0.707107
vn 0.000000 0.000000 1.000000
vn 0.000000 0.000000 1.000000
vn 0.000000 0.707107 0.707107
vn -0.301511 -0.301511 -0.904534
vn 0.000000 0.000000 -1.000000
vn 0.000000 0.000000 -1.000000
vn 0.301511 -0.301511 -0.904534
vn 0.000000 0.707107 -0.707107
vn 0.000000 0.000000 -1.000000
vn 0.000000 0.000000 -1.000000
vn 0.000000 0.707107 -0.707107
vn 0.000000 0.707107 -0.707107
vn 0.000000 1.000000 0.000000
vn 0.000000 1.000000 0.000000
vn 0.000000 0.707107 -0.707107
vn 0.000000 1.000000 0.000000
vn 0.000000 1.000000 0.000000
vn 0.000000 1.000000 0.000000
vn 0.000000 1.000000 0.000000
vn 0.707107 0.707107 0.000000
vn 0.707107 0.707107 0.000000
vn -0.707107 0.707107 0.000000
vn -0.707107 0.707107 0.000000
vn 0.577350 0.577350 -0.577350
vn 0.707107 0.707107 0.000000
vn 0.707107 0.000000 -0.707107
vn -0.577350 0.577350 0.577350
vn -0.707107 0.707107 0.000000
vn -0.707107 0.000000 0.707107
vn 0.301511 -0.301511 0.904534
vn -0.301511 -0.301511 0.904534
vn -0.301511 -0.301511 -0.904534
vn 0.301511 -0.301511 -0.904534
vn -0.301511 0.904534 -0.301511
vn -0.577434 0.577200 -0.577416
vn 0.577123 0.577356 -0.577572
vn 0.301511 0.904534 -0.301511
vn 0.707107 0.707107 0.000000
vn 0.706999 0.707214 -0.000851
vn 0.301289 0.301349 -0.904662
vn 0.577350 0.577350 -0.577350
vn -0.707107 0.707107 0.000000
vn -0.707214 0.706999 -0.000850
vn -0.301400 0.301338 -0.904629
vn 0.000000 -1.000000 0.000000
vn 0.000000 -1.000000 0.000000
vn 0.000000 -0.707107 -0.707107
vn 0.000000 -0.707107 -0.707107
vn 0.301511 -0.904534 -0.301511
vn 0.000000 -1.000000 0.000000
vn -0.301511 -0.904534 -0.301511
vn -0.577350 -0.577350 0.577350
vn -0.301511 -0.904534 -0.301511
vn 0.301511 -0.904534 -0.301511
vn 0.000000 -1.000000 0.000000
vn 0.577350 0.577350 0.577350
vn -0.577350 0.577350 -0.577350
vn 0.577350 -0.577350 -0.577350
vn 0.301511 -0.904534 0.301511
vn -0.301511 -0.904534 0.301511
vn 0.000000 -1.000000 0.000000
vn -0.301511 -0.904534 0.301511
vn 0.000000 -1.000000 0.000000
vn 0.301511 -0.904534 0.301511
vn -0.577350 0.577350 -0.577350
vn 0.000000 -0.707107 0.707107
vn 0.577350 -0.577350 0.577350
vn 0.707107 0.000000 0.707107
vn -0.301511 0.301511 0.904534
vn 0.577350 -0.577350 -0.577350
vn -0.577350 -0.577350 -0.577350
vn -0.707107 0.000000 -0.707107
vn 0.707107 0.000000 -0.707107
vn 0.707107 -0.707107 0.000000
vn 0.904534 0.301511 0.301511
vn 0.577350 -0.577350 -0.577350
vn -0.577350 -0.577350 -0.577350
vn -0.707107 0.000000 -0.707107
vn 0.707107 0.000000 -0.707107
vn 0.707107 -0.707107 0.000000
vn 0.904534 0.301511 0.301511
vn -0.577350 -0.577350 0.577350
vn 0.000000 -0.707107 0.707107
vn 0.301511 0.301511 0.904534
vn -0.707107 0.000000 0.707107
vn -0.707107 -0.707107 0.000000
vn -0.904534 0.301511 -0.301511
vn 0.707107 -0.707107 0.000000
vn 0.904534 0.301511 -0.301511
vn -0.707107 -0.707107 0.000000
vn -0.904534 0.301511 0.301511
vn -0.707107 -0.707107 0.000000
vn -0.904534 0.301511 0.301511
vn -0.577350 0.577350 -0.577350
vn 0.577350 0.577350 -0.577350
vn 0.301511 -0.904534 -0.301511
vn -0.301511 -0.904534 -0.301511
vt 0.170600 0.250000
vt 0.829400 0.250000
vt 0.829400 0.500000
vt 0.829400 0.000000
vt 0.829400 0.250000
vt 0.170600 0.250000
vt 0.170600 0.000000
vt 0.829400 0.000000
vt 0.829400 0.500000
vt 0.170600 0.500000
vt 0.170600 0.000000
vt 0.250000 0.000000
vt 0.250000 0.500000
vt 0.000000 0.500000
vt 0.000000 0.000000
vt 0.250000 0.000000
vt 0.250000 0.500000
vt 0.000000 0.500000
vt 0.000000 0.000000
vt 0.750000 0.000000
vt 0.750000 0.500000
vt 0.500000 0.500000
vt 0.500000 0.000000
vt 0.750000 0.000000
vt 0.750000 0.500000
vt 0.500000 0.500000
vt 0.500000 0.000000
vt 0.943100 0.000000
vt 0.943100 0.250000
vt 0.886300 0.250000
vt 0.886300 0.000000
vt 0.056900 0.500000
vt 0.056900 0.250000
vt 0.113700 0.250000
vt 0.113700 0.500000
vt 0.943100 0.000000
vt 0.943100 0.500000
vt 0.886300 0.500000
vt 0.886300 0.000000
vt 0.056900 1.000000
vt 0.056900 0.500000
vt 0.113700 0.500000
vt 0.113700 1.000000
vt 0.943100 0.000000
vt 0.943100 0.500000
vt 0.886300 0.500000
vt 0.886300 0.000000
vt 0.056900 1.000000
vt 0.056900 0.500000
vt 0.113700 0.500000
vt 0.113700 1.000000
vt 0.056900 1.000000
vt 0.056900 0.750000
vt 0.113700 0.750000
vt 0.113700 1.000000
vt 0.943100 0.500000
vt 0.943100 0.750000
vt 0.886300 0.750000
vt 0.886300 0.500000
vt 0.829400 1.000000
vt 0.170600 1.000000
vt 0.500000 1.000000
vt 0.250000 1.000000
vt 0.500000 1.000000
vt 0.250000 1.000000
vt 1.000000 1.000000
vt 0.750000 1.000000
vt 1.000000 0.500000
vt 1.000000 1.000000
vt 0.750000 1.000000
vt 1.000000 0.500000
vt 0.886300 1.000000
vt 0.943100 1.000000
vt 0.113700 0.000000
vt 0.056900 0.000000
vt 0.886300 1.000000
vt 0.943100 1.000000
vt 0.113700 0.000000
vt 0.056900 0.000000
vt 0.000000 1.000000
vt 0.747300 0.252700
vt 0.230100 0.230100
vt 1.000000 1.000000
vt 1.000000 1.000000
vt 0.247000 0.247000
vt 0.263800 0.263800
vt 1.000000 1.000000
vt 0.000000 1.000000
vt 0.617400 0.382600
vt 0.170600 0.000000
vt 0.500000 0.500000
vt 0.829400 0.000000
vt 0.170600 0.000000
vt 0.000000 0.000000
vt 1.000000 0.000000
vt 1.000000 0.000000
vt 0.000000 0.000000
vt 1.000000 0.000000
vt 0.000000 0.000000
vt 0.829400 1.000000
vt 0.829400 0.000000
vt 0.000000 0.500000
vt 0.000000 0.250000
vt 0.056900 0.250000
vt 0.056900 0.500000
vt 0.170600 0.000000
vt 0.113700 0.250000
vt 0.113700 0.000000
vt 1.000000 0.000000
vt 1.000000 0.250000
vt 0.943100 0.250000
vt 0.943100 0.000000
vt 0.886300 0.250000
vt 0.886300 0.500000
vt 1.000000 0.000000
vt 1.000000 0.250000
vt 0.829400 0.500000
vt 0.000000 0.500000
vt 0.000000 0.250000
vt 0.113700 0.000000
vt 1.000000 0.000000
vt 1.000000 0.500000
vt 0.000000 1.000000
vt 0.000000 0.500000
vt 1.000000 0.000000
vt 1.000000 0.500000
vt 0.829400 0.500000
vt 0.829400 0.000000
vt 0.000000 1.000000
vt 0.000000 0.500000
vt 0.170600 0.500000
vt 0.170600 1.000000
vt 0.000000 1.000000
vt 0.000000 0.750000
vt 0.056900 0.750000
vt 0.056900 1.000000
vt 0.170600 0.500000
vt 0.170600 0.750000
vt 0.113700 0.750000
vt 0.113700 0.500000
vt 1.000000 0.500000
vt 1.000000 0.750000
vt 0.943100 0.750000
vt 0.943100 0.500000
vt 0.829400 1.000000
vt 0.829400 0.750000
vt 0.886300 0.750000
vt 0.886300 1.000000
vt 0.000000 1.000000
vt 0.000000 0.750000
vt 0.170600 0.750000
vt 1.000000 0.500000
vt 1.000000 0.750000
vt 0.829400 1.000000
vt 0.829400 0.750000
vt 0.886300 1.000000
vt 1.000000 1.000000
vt 0.000000 0.000000
vt 0.829400 1.000000
vt 1.000000 1.000000
vt 0.170600 0.000000
vt 0.000000 0.000000
vt 0.465100 0.000000
vt 0.460000 0.000000
vt 0.540000 0.000000
vt 0.534900 0.000000
vt 0.056900 0.545200
vt 0.113700 0.545200
vt 0.113700 0.454800
vt 0.056900 0.454800
vt 0.056900 0.750000
vt 0.056900 1.000000
vt 0.056900 1.000000
vt 0.056900 0.750000
vt 0.886300 0.545200
vt 0.943100 0.545200
vt 0.943100 0.454800
vt 0.886300 0.454800
vt 0.886300 0.750000
vt 0.886300 1.000000
vt 0.886300 1.000000
vt 0.886300 0.750000
vt 0.540000 0.000000
vt 0.534900 0.000000
vt 0.465100 0.000000
vt 0.460000 0.000000
vt 0.943100 0.250000
vt 0.943100 0.000000
vt 0.943100 0.000000
vt 0.943100 0.250000
vt 0.829400 0.000000
vt 0.170600 0.500000
vt 1.000000 0.000000
vt 0.056900 0.000000
vt 0.000000 1.000000
vt 0.000000 0.000000
vt 0.056900 0.000000
vt 0.886300 0.000000
vt 0.000000 0.000000
vt 0.056900 0.000000
vt 0.056900 0.250000
vt 0.056900 0.250000
vt 0.056900 0.000000
vt 1.000000 0.000000
vt 0.943100 1.000000
vt 0.000000 1.000000
vt 0.000000 1.000000
vt 0.487600 0.512400
vt 0.170600 0.000000
vt 0.170600 1.000000
vt 0.170600 1.000000
vt 0.113700 1.000000
vt 1.000000 1.000000
vt 0.943100 1.000000
vt 0.170600 1.000000
vt 1.000000 1.000000
vt 0.113700 1.000000
vt 0.113700 0.750000
vt 0.113700 0.750000
vt 0.113700 1.000000
vt 0.943100 1.000000
vt 0.943100 0.750000
vt 0.943100 0.750000
vt 0.943100 1.000000
vt 1.000000 0.500000
vt 0.000000 0.500000
vt 0.056900 0.500000
vt 0.886300 0.500000
vt 0.886300 0.500000
vt 0.943100 0.500000
vt 0.170600 1.000000
vt 0.170600 1.000000
vt 0.113700 0.500000
vt 0.943100 0.500000
vt 0.113700 1.000000
vt 0.886300 0.500000
vt 0.113700 0.250000
vt 0.113700 0.000000
vt 0.886300 0.000000
vt 0.886300 0.250000
vt 0.534900 0.272600
vt 0.943100 0.272600
vt 0.082700 0.272600
vt 0.534900 0.727400
vt 0.491000 0.727400
vt 0.540000 0.727400
vt 0.087900 0.545200
vt 0.886300 0.272600
vt 0.829400 0.250000
vt 1.000000 0.250000
vt 0.943100 0.000000
vt 0.829400 0.250000
vt 0.750000 0.500000
vt 0.943100 0.250000
vt 0.886300 0.250000
vt 0.056900 0.250000
vt 0.082700 0.454800
vt 0.886300 0.227400
vt 0.565900 0.772600
vt 0.460000 0.772600
vt 0.465100 0.227400
vt 0.943100 0.227400
vt 0.087900 0.227400
vt 0.465100 0.772600
vt 0.886300 0.750000
vt 0.565900 0.772600
vt 0.943100 1.000000
vt 0.886300 0.545200
vt 0.056900 0.750000
vt 0.087900 0.227400
vt 0.113700 1.000000
vt 0.056900 0.545200
vt 0.056900 0.250000
vt 0.465100 0.227400
vt 0.056900 0.000000
vt 0.465100 0.000000
vt 0.943100 0.250000
vt 0.082700 0.454800
vt 0.829400 0.250000
vt 0.540000 0.000000
g MOD_DeskTop
f 1/137/1 2/1/2 3/2/3 4/3/4 
f 5/4/5 6/5/6 7/6/7 8/7/8 
f 9/8/9 10/9/10 11/10/11 12/11/12 
f 13/12/13 14/13/14 15/14/15 16/15/16 
f 17/16/17 18/17/18 19/18/19 20/19/20 
f 21/20/21 22/21/22 23/22/23 24/23/24 
f 25/24/25 26/25/26 27/26/27 28/27/28 
f 29/28/29 30/29/30 31/30/31 32/31/32 
f 33/32/33 34/33/34 35/34/35 36/35/36 
f 37/36/37 38/37/38 39/38/39 40/39/40 
f 41/40/41 42/41/42 43/42/43 44/43/44 
f 45/44/45 46/45/46 47/46/47 48/47/48 
f 49/48/49 50/49/50 51/50/51 52/51/52 
f 53/52/53 54/53/54 55/54/55 56/55/56 
f 57/56/57 58/57/58 59/58/59 60/59/60 
f 5/60/5 8/61/8 11/10/11 10/9/10 
f 61/62/61 62/63/62 14/13/14 23/22/23 
f 63/64/63 64/65/64 18/17/18 27/26/27 
f 65/66/65 66/67/66 22/21/22 67/68/67 
f 68/69/68 69/70/69 26/25/26 70/71/70 
f 32/72/32 39/38/39 38/37/38 29/73/29 
f 71/74/71 43/42/43 42/41/42 72/75/72 
f 56/76/56 47/46/47 46/45/46 53/77/53 
f 73/78/73 51/50/51 50/49/50 74/79/74 
f 75/80/75 76/81/76 77/82/77 78/83/78 
f 79/84/79 80/85/80 81/86/81 82/87/82 
f 75/80/75 83/88/83 84/89/84 76/81/76 
f 80/90/80 84/91/84 85/92/85 81/93/81 
f 86/94/86 87/95/87 1/96/1 4/97/4 
f 88/98/88 89/99/89 81/100/81 85/101/85 
f 24/102/24 13/103/13 90/104/90 91/105/91 
f 9/106/9 2/1/2 92/107/92 40/108/40 
f 93/109/93 25/110/25 94/111/94 72/112/72 
f 4/3/4 3/2/3 95/113/95 96/114/96 
f 97/115/97 62/116/62 30/29/30 29/28/29 
f 75/117/75 6/5/6 31/30/31 60/59/60 
f 63/118/63 69/119/69 34/33/34 33/32/33 
f 8/7/8 7/6/7 35/34/35 44/120/44 
f 16/121/16 15/122/15 38/37/38 37/36/37 
f 10/9/10 9/8/9 40/39/40 39/38/39 
f 68/123/68 70/124/70 42/41/42 41/40/41 
f 11/10/11 8/61/8 44/43/44 43/42/43 
f 20/125/20 19/126/19 46/45/46 45/44/45 
f 81/127/81 89/128/89 48/47/48 47/46/47 
f 65/129/65 67/130/67 50/49/50 49/48/49 
f 85/131/85 98/132/98 52/51/52 51/50/51 
f 99/133/99 21/134/21 100/135/100 74/136/74 
f 1/137/1 87/138/87 101/139/101 102/140/102 
f 28/141/28 17/142/17 103/143/103 104/144/104 
f 89/145/89 86/146/86 105/147/105 48/148/48 
f 106/149/106 64/150/64 54/53/54 53/52/53 
f 78/192/78 79/151/79 55/54/55 36/35/36 
f 61/152/61 66/153/66 58/57/58 57/56/57 
f 98/154/98 83/155/83 59/58/59 52/156/52 
f 5/60/5 10/9/10 39/38/39 32/72/32 
f 15/122/15 97/157/97 29/73/29 38/37/38 
f 12/11/12 11/10/11 43/42/43 71/74/71 
f 70/124/70 93/158/93 72/75/72 42/41/42 
f 82/159/82 81/127/81 47/46/47 56/76/56 
f 19/126/19 106/160/106 53/77/53 46/45/46 
f 88/161/88 85/131/85 51/50/51 73/78/73 
f 67/130/67 99/162/99 74/79/74 50/49/50 
f 107/163/107 108/164/108 109/165/109 110/166/110 
f 111/167/111 112/168/112 113/169/113 114/170/114 
f 115/171/115 111/172/111 114/173/114 116/174/116 
f 117/175/117 118/176/118 119/177/119 120/178/120 
f 121/179/121 117/180/117 120/181/120 122/182/122 
f 123/183/123 124/184/124 125/185/125 126/186/126 
f 127/187/127 123/188/123 126/189/126 128/190/128 
f 9/106/9 12/191/12 3/2/3 2/1/2 
f 75/117/75 78/192/78 7/6/7 6/5/6 
f 24/23/24 23/22/23 14/13/14 13/12/13 
f 93/193/93 70/71/70 26/25/26 25/24/25 
f 57/56/57 60/59/60 31/30/31 30/29/30 
f 41/194/41 44/120/44 35/34/35 34/33/34 
f 97/195/97 15/14/15 14/13/14 62/63/62 
f 63/64/63 27/26/27 26/25/26 69/70/69 
f 16/196/16 37/197/37 90/104/90 13/103/13 
f 1/137/1 102/140/102 92/107/92 2/1/2 
f 28/141/28 104/144/104 94/111/94 25/110/25 
f 12/191/12 71/198/71 95/113/95 3/2/3 
f 61/152/61 57/56/57 30/29/30 62/116/62 
f 5/4/5 32/31/32 31/30/31 6/5/6 
f 68/199/68 41/194/41 34/33/34 69/119/69 
f 78/192/78 36/35/36 35/34/35 7/6/7 
f 108/200/108 129/201/129 130/202/130 109/203/109 
f 28/27/28 27/26/27 18/17/18 17/16/17 
f 99/204/99 67/68/67 22/21/22 21/20/21 
f 33/32/33 36/35/36 55/54/55 54/53/54 
f 49/205/49 52/156/52 59/58/59 58/57/58 
f 106/206/106 19/18/19 18/17/18 64/65/64 
f 61/62/61 23/22/23 22/21/22 66/67/66 
f 78/83/78 77/82/77 80/85/80 79/84/79 
f 98/207/98 85/208/85 84/89/84 83/88/83 
f 77/209/77 76/210/76 84/91/84 80/90/80 
f 89/99/89 88/98/88 87/95/87 86/94/86 
f 24/102/24 91/105/91 100/135/100 21/134/21 
f 88/211/88 73/212/73 101/139/101 87/138/87 
f 20/213/20 45/214/45 103/143/103 17/142/17 
f 4/3/4 96/114/96 105/147/105 86/146/86 
f 63/118/63 33/32/33 54/53/54 64/150/64 
f 82/215/82 56/55/56 55/54/55 79/151/79 
f 65/216/65 49/205/49 58/57/58 66/153/66 
f 75/117/75 60/59/60 59/58/59 83/155/83 
f 112/217/112 131/218/131 132/219/132 113/220/113 
f 118/221/118 133/222/133 134/223/134 119/224/119 
f 91/225/91 102/226/102 101/227/101 100/228/100 
f 102/226/102 91/225/91 90/229/90 92/230/92 
f 96/231/96 104/232/104 103/233/103 105/234/105 
f 104/232/104 96/231/96 95/235/95 94/236/94 
f 37/36/37 40/39/40 110/166/110 109/165/109 
f 40/108/40 92/107/92 135/237/135 110/238/110 
f 73/78/73 74/79/74 114/170/114 113/169/113 
f 74/136/74 100/135/100 116/174/116 114/173/114 
f 45/44/45 48/47/48 120/178/120 119/177/119 
f 48/148/48 105/147/105 122/182/122 120/181/120 
f 71/74/71 72/75/72 126/186/126 125/185/125 
f 72/112/72 94/111/94 128/190/128 126/189/126 
f 90/104/90 37/197/37 109/203/109 130/202/130 
f 95/113/95 71/198/71 125/239/125 136/240/136 
f 101/139/101 73/212/73 113/220/113 132/219/132 
f 103/143/103 45/214/45 119/224/119 134/223/134 
f 92/230/92 90/229/90 130/241/130 135/242/135 
f 100/228/100 101/227/101 132/243/132 116/244/116 
f 105/234/105 103/233/103 134/245/134 122/246/122 
f 94/236/94 95/235/95 136/247/136 128/248/128 
f 124/249/124 107/250/107 110/251/110 125/252/125 
f 125/252/125 110/251/110 135/253/135 136/254/136 
f 137/255/137 138/256/138 107/250/107 124/249/124 
f 136/254/136 135/253/135 138/256/138 137/255/137 
f 137/257/137 127/258/127 133/259/133 121/260/121 
f 127/187/127 128/190/128 134/223/134 133/222/133 
f 128/248/128 136/247/136 122/246/122 134/245/134 
f 136/254/136 137/255/137 121/179/121 122/182/122 
f 135/242/135 130/241/130 116/244/116 132/243/132 
f 130/202/130 129/201/129 115/171/115 116/174/116 
f 129/261/129 138/262/138 131/263/131 115/264/115 
f 138/256/138 135/253/135 132/219/132 131/218/131 
f 121/265/121 133/266/133 118/267/118 117/268/117 
f 115/269/115 131/270/131 112/271/112 111/272/111 
f 138/273/138 129/274/129 108/275/108 107/276/107 
f 127/277/127 137/278/137 124/279/124 123/280/123 
