o doorTop01.obj
v -0.950799 4.000000 0.249955
v 0.950799 4.000000 0.249955
v 0.950799 4.000000 -0.249956
v -0.950799 4.000000 -0.249956
v 0.877052 3.534394 0.162411
v 0.877052 3.778944 0.162411
v 0.818799 3.830946 0.162411
v -0.818496 3.509689 0.162411
v -0.825195 3.830946 0.162411
v -0.877051 3.778944 0.162411
v -0.877051 3.534394 0.162411
v 0.821033 3.509689 0.162411
v 0.999963 3.905058 -0.249956
v 0.999963 4.000000 -0.249956
v 0.999963 4.000000 0.249955
v 0.999963 3.905058 0.249980
v 0.999963 3.435578 0.249886
v 0.999963 3.435578 -0.249956
v 0.999963 3.300000 0.233554
v 0.999966 3.300410 -0.249956
v 0.950799 3.905058 -0.249956
v -0.950799 3.905058 -0.249956
v 0.950799 3.435578 -0.249956
v -0.950799 3.435578 -0.249956
v 0.950801 3.300410 -0.249956
v -0.950837 3.301155 -0.249956
v -0.999963 4.000000 0.249958
v -0.999963 4.000000 -0.249953
v -0.999963 3.905058 -0.249953
v -0.999963 3.905058 0.249980
v -1.000034 3.435578 0.250044
v -0.999963 3.435578 -0.249953
v -0.999971 3.300410 0.233567
v -1.000003 3.301155 -0.249953
v 0.950799 3.435578 0.249886
v 0.950799 3.905058 0.249980
v 0.901634 3.803648 0.249955
v 0.901634 3.509689 0.249955
v -0.950799 3.905058 0.249980
v -0.950870 3.435578 0.250044
v -0.901633 3.509689 0.249955
v -0.901633 3.803648 0.249955
v 0.843381 3.855651 0.249955
v -0.849777 3.855651 0.249955
v -0.843078 3.484985 0.249955
v 0.845615 3.484985 0.249955
v -0.950806 3.300410 0.233564
v 0.950799 3.300000 0.233554
vn 0.000021 0.707199 0.707014
vn 0.000000 0.707199 0.707014
vn 0.000000 0.707107 -0.707107
vn -0.000021 0.707107 -0.707107
vn -0.437600 0.279885 0.854500
vn -0.664168 -0.291109 0.688575
vn -0.194737 -0.520990 0.831051
vn 0.073234 0.366859 0.927389
vn 0.274441 -0.675144 0.684736
vn 0.511791 -0.207173 0.833756
vn 0.586492 0.381889 0.714275
vn -0.153403 0.738169 0.656943
vn 0.707107 0.000000 -0.707107
vn 0.577350 0.577350 -0.577350
vn 0.577300 0.577451 0.577300
vn 0.707107 0.000021 0.707107
vn 0.707740 -0.042391 0.705200
vn 0.707107 0.000000 -0.707107
vn 0.555770 -0.622236 0.551310
vn 0.577187 -0.577187 -0.577677
vn 0.000000 0.000000 -1.000000
vn -0.000029 0.000000 -1.000000
vn 0.000000 0.000000 -1.000000
vn -0.000029 0.000000 -1.000000
vn -0.000018 -0.358179 -0.933653
vn -0.000039 -0.049136 -0.998792
vn -0.577278 0.577462 0.577311
vn -0.577373 0.577339 -0.577339
vn -0.707127 0.000054 -0.707086
vn -0.707096 0.000195 0.707117
vn -0.707781 -0.042887 0.705129
vn -0.707102 -0.000105 -0.707111
vn -0.555579 -0.623069 0.550561
vn -0.399080 -0.457891 -0.794400
vn 0.000066 -0.040086 0.999196
vn -0.000040 -0.000092 1.000000
vn -0.501443 -0.219870 0.836787
vn -0.437576 0.279616 0.854601
vn 0.000305 0.000022 1.000000
vn 0.000362 -0.039935 0.999202
vn 0.434465 0.282824 0.855132
vn 0.512202 -0.207122 0.833516
vn -0.194762 -0.521140 0.830952
vn 0.207764 -0.511198 0.833973
vn 0.113593 0.569082 0.814397
vn -0.117604 0.566791 0.815425
vn 0.000035 -0.530675 0.847575
vn 0.000010 -0.923201 0.384317
vt 0.000000 0.000000
vt 0.924500 0.000000
vt 1.000000 1.000000
vt 0.000000 1.000000
vt 1.000000 0.727100
vt 1.000000 0.844300
vt 0.977300 0.857100
vt 0.022700 0.714300
vt 0.022700 0.857100
vt 0.000000 0.844300
vt 0.000000 0.727100
vt 0.977300 0.714300
vt 1.000000 0.857100
vt 1.000000 1.000000
vt 0.000000 1.000000
vt 0.107600 0.857100
vt 0.000000 0.691000
vt 1.000000 0.714300
vt 0.000000 0.560600
vt 1.000000 0.560600
vt 1.000000 1.000000
vt 0.000000 1.000000
vt 0.000000 0.857100
vt 1.000000 0.857100
vt 0.000000 0.714300
vt 1.000000 0.714300
vt 0.013100 0.586700
vt 1.000000 0.632600
vt 1.000000 1.000000
vt 0.000000 1.000000
vt 0.091700 0.845000
vt 1.000000 0.882200
vt 0.895300 0.714300
vt 0.000000 0.722800
vt 0.955200 0.632600
vt 0.131200 0.571400
vt 0.000000 0.691000
vt 1.000000 0.846300
vt 0.940400 0.716000
vt 1.000000 0.882200
vt 0.000000 0.725200
vt 0.000000 0.846300
vt 0.978300 0.857100
vt 0.021700 0.857100
vt 0.978300 0.714300
vt 0.107600 0.857100
vt 0.924500 1.000000
vt 0.000000 1.000000
vt 0.923900 0.857100
vt 0.021700 0.714300
vt 0.076100 0.714300
vt 0.895300 0.714300
vt 0.112200 0.571400
vt 0.571700 0.622600
g MOD_DoorTop
f 1/1/1 2/2/2 3/3/3 4/4/4 
f 5/5/5 6/6/6 7/7/7 8/8/8 
f 7/7/7 9/9/9 10/10/10 8/8/8 
f 10/10/10 11/11/11 8/8/8 
f 12/12/12 5/5/5 8/8/8 
f 13/13/13 14/14/14 15/15/15 16/16/16 
f 13/13/13 16/16/16 17/17/17 18/18/18 
f 18/18/18 17/17/17 19/19/19 20/20/20 
f 4/21/4 3/22/3 21/23/21 22/24/22 
f 22/24/22 21/23/21 23/25/23 24/26/24 
f 24/26/24 23/25/23 25/27/25 26/28/26 
f 27/29/27 28/30/28 29/31/29 30/32/30 
f 31/33/31 30/32/30 29/31/29 32/34/32 
f 33/35/33 31/33/31 32/34/32 34/36/34 
f 35/37/35 36/46/36 37/38/37 38/39/38 
f 39/40/39 40/52/40 41/41/41 42/42/42 
f 38/39/38 37/38/37 6/6/6 5/5/5 
f 43/43/43 44/44/44 9/9/9 7/7/7 
f 42/42/42 41/41/41 11/11/11 10/10/10 
f 45/50/45 46/45/46 12/12/12 8/8/8 
f 46/45/46 38/39/38 5/5/5 12/12/12 
f 37/38/37 43/43/43 7/7/7 6/6/6 
f 44/44/44 42/42/42 10/10/10 9/9/9 
f 41/41/41 45/50/45 8/8/8 11/11/11 
f 39/40/39 42/42/42 44/44/44 
f 35/37/35 38/39/38 46/45/46 
f 43/43/43 36/46/36 39/40/39 44/44/44 
f 39/40/39 36/46/36 2/47/2 1/48/1 
f 43/43/43 37/49/37 36/46/36 
f 45/50/45 41/51/41 40/52/40 
f 45/50/45 40/52/40 35/37/35 46/45/46 
f 35/37/35 40/52/40 47/53/47 48/54/48 
f 25/27/25 23/25/23 18/18/18 20/20/20 
f 23/25/23 21/23/21 13/13/13 18/18/18 
f 21/23/21 3/22/3 14/14/14 13/13/13 
f 3/3/3 2/2/2 15/15/15 14/14/14 
f 2/47/2 36/46/36 16/16/16 15/15/15 
f 36/46/36 35/37/35 17/17/17 16/16/16 
f 35/37/35 48/54/48 19/19/19 17/17/17 
f 47/53/47 40/52/40 31/33/31 33/35/33 
f 40/52/40 39/40/39 30/32/30 31/33/31 
f 39/40/39 1/48/1 27/29/27 30/32/30 
f 1/1/1 4/4/4 28/30/28 27/29/27 
f 4/21/4 22/24/22 29/31/29 28/30/28 
f 22/24/22 24/26/24 32/34/32 29/31/29 
f 24/26/24 26/28/26 34/36/34 32/34/32 
f 47/53/47 33/35/33 34/36/34 48/54/48 
f 34/36/34 26/28/26 25/27/25 48/54/48 
f 19/19/19 48/54/48 25/27/25 20/20/20 
