o Wall03.obj
v -0.950799 0.000000 0.249937
v -0.950799 0.000000 -0.249937
v 0.950799 -0.000000 -0.249937
v 0.950799 -0.000000 0.249937
v -0.950799 3.750000 0.249937
v 0.950799 3.750000 0.249937
v 0.950799 3.750000 -0.249937
v -0.950799 3.750000 -0.249937
v 0.999966 3.041101 -0.249937
v 0.999963 3.040685 0.233539
v 0.999963 1.419123 0.233539
v 0.999963 1.419123 -0.249972
v -0.999971 3.041101 0.233549
v -1.000002 3.041854 -0.249937
v -1.000017 1.419123 -0.249937
v -0.999963 1.419123 0.233542
v 0.877051 3.278195 0.162399
v 0.877051 3.526003 0.162399
v 0.818798 3.578696 0.162399
v -0.818496 3.253162 0.162399
v -0.825195 3.578696 0.162399
v -0.877051 3.526003 0.162399
v -0.877051 3.278195 0.162399
v 0.821033 3.253162 0.162399
v 0.950799 0.161523 0.249915
v -0.950799 0.161523 0.249915
v -0.877051 0.909929 0.156471
v -0.877051 0.294086 0.156471
v -0.816377 0.236621 0.156471
v 0.822530 0.969349 0.156471
v 0.821414 0.236621 0.156471
v 0.877051 0.290571 0.156471
v 0.877051 0.920150 0.156471
v -0.823076 0.969349 0.156471
v -0.950799 1.044447 0.249992
v 0.950799 1.044447 0.249992
v 0.950799 1.419123 0.233539
v -0.950799 1.419123 0.233539
v 0.999963 3.653794 -0.249937
v 0.999963 3.750000 -0.249937
v 0.999963 3.750000 0.249937
v 0.999963 3.653794 0.249963
v 0.999963 3.178067 0.249865
v 0.999963 3.178067 -0.249937
v 0.999963 -0.000000 0.249937
v 0.999963 -0.000000 -0.249937
v 0.999963 0.161523 -0.249937
v 0.999963 0.161523 0.249915
v 0.999963 1.044447 -0.249937
v 0.999963 1.044447 0.249992
v 0.950799 3.653794 -0.249937
v -0.950799 3.653794 -0.249937
v 0.950799 3.178067 -0.249937
v -0.950799 3.178067 -0.249937
v 0.950801 3.041101 -0.249937
v -0.950838 3.041854 -0.249937
v -0.950799 0.161523 -0.249937
v 0.950799 0.161523 -0.249937
v -0.950799 1.044447 -0.249937
v 0.950799 1.044447 -0.249937
v -0.950852 1.419123 -0.249937
v 0.950799 1.419123 -0.249972
v -0.999963 3.750000 0.249937
v -0.999963 3.750000 -0.249937
v -0.999963 3.653794 -0.249937
v -0.999963 3.653794 0.249963
v -1.000034 3.178064 0.250028
v -0.999963 3.178067 -0.249937
v -0.999963 0.000000 -0.249937
v -0.999963 0.000000 0.249937
v -0.999963 0.161523 0.249915
v -0.999963 0.161523 -0.249937
v -0.999963 1.044447 -0.249937
v -0.999963 1.044447 0.249992
v 0.950799 3.178067 0.249865
v 0.950799 3.653794 0.249963
v 0.901634 3.551035 0.249937
v 0.901634 3.253162 0.249937
v -0.950799 3.653794 0.249963
v -0.950870 3.178064 0.250028
v -0.901634 3.253162 0.249937
v -0.901634 3.551035 0.249937
v 0.950799 3.040685 0.233539
v 0.901634 2.908916 0.249937
v 0.901634 1.518460 0.249937
v -0.950806 3.041101 0.233549
v -0.837120 2.974612 0.249937
v 0.837120 2.974612 0.249937
v -0.901634 1.518460 0.249937
v -0.901634 2.908916 0.249937
v 0.837120 1.452765 0.249937
v -0.837120 1.452765 0.249937
v 0.901634 0.945183 0.249937
v 0.901634 0.265539 0.249937
v -0.847658 0.994382 0.249937
v 0.847113 0.994382 0.249937
v -0.901634 0.269053 0.249937
v -0.901634 0.934962 0.249937
v 0.845996 0.211588 0.249937
v -0.840960 0.211588 0.249937
v 0.843381 3.603729 0.249937
v -0.849777 3.603729 0.249937
v -0.843079 3.228130 0.249937
v 0.845615 3.228130 0.249937
v 0.877051 2.883883 0.127718
v 0.877051 1.543493 0.127718
v -0.812538 2.949579 0.127718
v 0.812537 2.949579 0.127718
v -0.877051 1.543493 0.127718
v -0.877051 2.883883 0.127718
v 0.812537 1.477797 0.127718
v -0.812538 1.477797 0.127718
v 0.901634 1.518460 -0.249937
v 0.901634 2.908916 -0.249937
v -0.837120 1.452765 -0.249937
v 0.837120 1.452765 -0.249937
v -0.901634 2.908916 -0.249937
v -0.901634 1.518460 -0.249937
v 0.837120 2.974612 -0.249937
v -0.837120 2.974612 -0.249937
v 0.877051 1.543493 -0.165001
v 0.877051 2.883883 -0.165001
v -0.812538 1.477797 -0.165001
v 0.812537 1.477797 -0.165001
v -0.877051 2.883883 -0.165001
v -0.877051 1.543493 -0.165001
v 0.812537 2.949579 -0.165001
v -0.812538 2.949579 -0.165001
v 0.885505 1.469188 0.249937
v 0.885505 2.958187 0.249937
v -0.885505 2.958187 0.249937
v -0.885505 1.469188 0.249937
v 0.860923 1.494221 0.127718
v 0.860923 2.933155 0.127718
v -0.860923 2.933155 0.127718
v -0.860923 1.494221 0.127718
v 0.885505 2.958187 -0.249937
v 0.885505 1.469188 -0.249937
v -0.885505 1.469188 -0.249937
v -0.885505 2.958187 -0.249937
v 0.860923 2.933155 -0.165001
v 0.860923 1.494221 -0.165001
v -0.860923 1.494221 -0.165001
v -0.860923 2.933155 -0.165001
vn -0.000000 -0.707058 0.707156
vn -0.000000 -0.707107 -0.707107
vn -0.000000 -0.707107 -0.707107
vn -0.000000 -0.707058 0.707156
vn 0.000000 0.707199 0.707015
vn 0.000000 0.707199 0.707015
vn 0.000000 0.707107 -0.707107
vn 0.000000 0.707107 -0.707107
vn 0.707108 0.000008 -0.707106
vn 0.707724 -0.041758 0.705254
vn 0.707191 0.015513 0.706852
vn 0.707108 -0.000025 -0.707106
vn -0.707749 -0.042427 0.705188
vn -0.707093 -0.000154 -0.707120
vn -0.707118 0.000003 -0.707095
vn -0.707171 0.015514 0.706872
vn -0.438270 0.278563 0.854589
vn -0.665011 -0.288759 0.688752
vn -0.195809 -0.518774 0.832185
vn 0.073880 0.365703 0.927794
vn 0.275897 -0.672458 0.686790
vn 0.512531 -0.205437 0.833731
vn 0.587178 0.380017 0.714709
vn -0.154763 0.735934 0.659128
vn -0.000133 -0.000082 1.000000
vn -0.000067 -0.000082 1.000000
vn 0.526588 -0.199700 0.826332
vn 0.678587 0.286342 0.676408
vn 0.204247 0.522108 0.828062
vn -0.126980 -0.336254 0.933172
vn -0.272970 0.686080 0.674375
vn -0.515481 0.214019 0.829744
vn -0.673575 -0.293670 0.678273
vn 0.292452 -0.673221 0.679151
vn 0.000026 0.014359 0.999897
vn -0.000215 0.014351 0.999897
vn 0.085789 -0.092755 0.991986
vn -0.085780 -0.092757 0.991987
vn 0.707107 0.000000 -0.707107
vn 0.577350 0.577350 -0.577350
vn 0.577300 0.577450 0.577300
vn 0.707107 0.000020 0.707107
vn 0.707723 -0.041830 0.705251
vn 0.707107 0.000000 -0.707107
vn 0.577377 -0.577297 0.577377
vn 0.577350 -0.577350 -0.577350
vn 0.707107 0.000000 -0.707107
vn 0.707107 0.000018 0.707107
vn 0.707107 -0.000033 -0.707107
vn 0.707192 0.015482 0.706852
vn 0.000000 0.000000 -1.000000
vn 0.000000 0.000000 -1.000000
vn 0.000000 0.000000 -1.000000
vn 0.000000 0.000000 -1.000000
vn -0.000095 0.000006 -1.000000
vn 0.000000 0.000000 -1.000000
vn 0.000000 0.000000 -1.000000
vn 0.000000 0.000000 -1.000000
vn 0.000000 0.000000 -1.000000
vn 0.000000 -0.000023 -1.000000
vn -0.000003 0.000009 -1.000000
vn -0.000183 0.000091 -1.000000
vn -0.577300 0.577450 0.577300
vn -0.577350 0.577350 -0.577350
vn -0.707107 0.000053 -0.707107
vn -0.707107 0.000193 0.707107
vn -0.707764 -0.042328 0.705180
vn -0.707082 -0.000105 -0.707132
vn -0.577350 -0.577350 -0.577350
vn -0.577377 -0.577297 0.577377
vn -0.707107 0.000018 0.707107
vn -0.707107 0.000000 -0.707107
vn -0.707107 0.000000 -0.707107
vn -0.707183 0.015482 0.706861
vn 0.000071 -0.039562 0.999217
vn -0.000039 -0.000093 1.000000
vn -0.502215 -0.218156 0.836772
vn -0.438241 0.278287 0.854694
vn 0.000298 0.000022 1.000000
vn 0.000366 -0.039410 0.999223
vn 0.435117 0.281528 0.855228
vn 0.512945 -0.205386 0.833489
vn 0.078794 0.030973 0.996410
vn -0.508462 -0.088078 0.856568
vn -0.503432 0.085989 0.859745
vn -0.078666 0.030644 0.996430
vn 0.090850 -0.527236 0.844848
vn -0.090743 -0.527087 0.844953
vn 0.503435 0.085987 0.859744
vn 0.508549 -0.088115 0.856512
vn -0.089417 0.468383 0.878989
vn 0.089418 0.468383 0.878989
vn -0.509234 -0.221991 0.831505
vn -0.515676 0.213919 0.829649
vn 0.221062 -0.509068 0.831854
vn -0.198777 -0.526557 0.826575
vn 0.513271 0.216564 0.830454
vn 0.526597 -0.199826 0.826296
vn -0.206895 0.519934 0.828772
vn 0.204226 0.521976 0.828151
vn -0.195834 -0.518923 0.832087
vn 0.208783 -0.508960 0.835087
vn 0.114580 0.567213 0.815562
vn -0.118607 0.564896 0.816593
vn -0.981246 -0.156053 0.113153
vn -0.981246 0.156053 0.113153
vn 0.161337 -0.980174 0.115022
vn -0.161336 -0.980174 0.115022
vn 0.981246 0.156053 0.113153
vn 0.981246 -0.156053 0.113153
vn -0.161333 0.980174 0.115022
vn 0.161335 0.980174 0.115022
vn -0.574906 0.090622 -0.813185
vn -0.574821 -0.090572 -0.813251
vn 0.093291 0.571946 -0.814969
vn -0.093344 0.572044 -0.814894
vn 0.574681 -0.090590 -0.813348
vn 0.574681 0.090590 -0.813348
vn -0.093298 -0.571932 -0.814978
vn 0.093299 -0.571932 -0.814978
vn -0.975005 0.154630 -0.159543
vn -0.975005 -0.154630 -0.159543
vn 0.159827 0.973748 -0.162080
vn -0.159825 0.973748 -0.162080
vn 0.975005 -0.154630 -0.159543
vn 0.975005 0.154630 -0.159543
vn -0.159827 -0.973748 -0.162081
vn 0.159829 -0.973748 -0.162080
vn -0.344284 0.334394 0.877297
vn -0.352938 -0.353456 0.866316
vn 0.353066 -0.353657 0.866182
vn 0.344284 0.334393 0.877297
vn -0.704036 0.696260 0.139838
vn -0.704038 -0.696259 0.139838
vn 0.704039 -0.696257 0.139838
vn 0.704037 0.696259 0.139838
vn -0.376136 -0.371738 -0.848724
vn -0.376268 0.371882 -0.848602
vn 0.376136 0.371738 -0.848724
vn 0.376137 -0.371738 -0.848724
vn -0.697298 -0.689454 -0.196030
vn -0.697297 0.689456 -0.196030
vn 0.697298 0.689455 -0.196030
vn 0.697299 -0.689454 -0.196030
vt 1.000000 0.000000
vt 1.000000 1.000000
vt 0.000000 1.000000
vt 0.000000 0.000000
vt 0.000000 0.000000
vt 0.924500 0.000000
vt 1.000000 1.000000
vt 0.000000 1.000000
vt 1.000000 0.560600
vt 0.000000 0.560600
vt 0.000000 0.439400
vt 1.000000 0.405100
vt 0.955200 0.632600
vt 0.131200 0.571400
vt 0.000000 0.439400
vt 1.000000 0.406600
vt 1.000000 0.727100
vt 1.000000 0.844300
vt 0.977300 0.857100
vt 0.022700 0.714300
vt 0.022700 0.857100
vt 0.000000 0.844300
vt 0.000000 0.727100
vt 0.977300 0.714300
vt 0.000000 0.000000
vt 1.000000 0.000000
vt 1.000000 0.118800
vt 0.000000 0.118800
vt 0.000000 0.280700
vt 0.000000 0.147900
vt 0.022700 0.142900
vt 0.977300 0.285700
vt 0.977300 0.142900
vt 1.000000 0.147900
vt 1.000000 0.280700
vt 0.022700 0.285700
vt 0.000000 0.294700
vt 1.000000 0.294700
vt 0.947500 0.428600
vt 1.000000 0.857100
vt 1.000000 1.000000
vt 0.000000 1.000000
vt 0.107600 0.857100
vt 0.000000 0.691000
vt 1.000000 0.714300
vt 0.000000 0.000000
vt 1.000000 0.000000
vt 1.000000 0.142900
vt 0.000000 0.118800
vt 1.000000 0.285700
vt 0.050000 0.285700
vt 1.000000 1.000000
vt 0.000000 1.000000
vt 0.000000 0.857100
vt 1.000000 0.857100
vt 0.000000 0.714300
vt 1.000000 0.714300
vt 0.013100 0.586700
vt 0.000000 0.000000
vt 1.000000 0.000000
vt 1.000000 0.142900
vt 0.000000 0.142900
vt 1.000000 0.285700
vt 0.000000 0.285700
vt 0.947500 0.428600
vt 1.000000 1.000000
vt 0.000000 1.000000
vt 0.091700 0.845000
vt 1.000000 0.882200
vt 0.895300 0.714300
vt 0.000000 0.722800
vt 0.000000 0.000000
vt 1.000000 0.000000
vt 1.000000 0.147000
vt 0.000000 0.142900
vt 0.000000 0.285700
vt 1.000000 0.294700
vt 0.000000 0.691000
vt 1.000000 0.846300
vt 0.940400 0.716000
vt 1.000000 0.882200
vt 0.000000 0.725200
vt 0.000000 0.846300
vt 0.000000 0.560600
vt 1.000000 0.559200
vt 1.000000 0.440800
vt 0.112200 0.571400
vt 0.057100 0.571400
vt 0.942900 0.571400
vt 1.000000 0.406600
vt 0.000000 0.440800
vt 0.000000 0.559200
vt 0.942900 0.428600
vt 0.057100 0.428600
vt 0.000000 0.118800
vt 0.050000 0.285700
vt 1.000000 0.281000
vt 0.908300 0.173300
vt 0.021700 0.285700
vt 0.978300 0.285700
vt 1.000000 0.294700
vt 1.000000 0.147000
vt 0.000000 0.147500
vt 0.000000 0.281000
vt 0.029000 0.142900
vt 1.000000 0.118800
vt 0.978300 0.142900
vt 0.021700 0.142900
vt 0.978300 0.857100
vt 0.021700 0.857100
vt 0.978300 0.714300
vt 0.107600 0.857100
vt 0.924500 1.000000
vt 0.000000 1.000000
vt 0.923900 0.857100
vt 0.021700 0.714300
vt 0.076100 0.714300
vt 0.895300 0.714300
vt 0.112200 0.571400
vt 0.571700 0.622600
vt 1.000000 0.558300
vt 1.000000 0.441700
vt 0.059600 0.571400
vt 0.940400 0.571400
vt 0.000000 0.441700
vt 0.000000 0.558300
vt 0.940400 0.428600
vt 0.059600 0.428600
vt 1.000000 0.405100
vt 0.000000 0.440800
vt 0.000000 0.559200
vt 0.942900 0.428600
vt 0.057100 0.428600
vt 0.131200 0.571400
vt 1.000000 0.559200
vt 1.000000 0.440800
vt 0.057100 0.571400
vt 0.942900 0.571400
vt 0.000000 0.441700
vt 0.000000 0.558300
vt 0.940400 0.428600
vt 0.059600 0.428600
vt 1.000000 0.558300
vt 1.000000 0.441700
vt 0.059600 0.571400
vt 0.940400 0.571400
vt 0.000000 0.437100
vt 0.940400 0.716000
vt 0.059600 0.580600
vt 0.000000 0.562900
vt 0.908300 0.173300
vt 0.091700 0.845000
vt 0.908300 0.737300
vt 0.091700 0.402800
vt 0.091700 0.571400
vt 0.000000 0.584500
vt 0.000000 0.701200
vt 0.908300 0.571400
vt 1.000000 0.546100
vt 0.000000 0.722800
vt 0.000000 0.848600
vt 1.000000 0.172800
vt 1.331600 0.146000
vt 0.967200 0.285700
vt -0.331600 0.282600
vt 0.032800 0.142900
vt 0.000000 0.439400
vt 1.436600 0.438800
vt 1.873200 0.436700
vt 0.846200 0.571400
vt 0.887200 0.571400
vt 0.831500 0.571400
vt 0.091600 0.563900
vt -0.436600 0.561200
vt -0.873200 0.563300
vt 0.000000 0.406600
vt 0.071400 0.428600
vt 0.085700 0.428600
vt 0.970200 0.435100
vt 0.971500 0.434700
vt 0.970200 0.564900
vt 0.971500 0.565300
vt 0.029800 0.564900
vt 0.028500 0.565300
vt 0.029800 0.435100
vt 0.028500 0.434700
vt 1.000000 0.560600
vt -0.436600 0.561200
vt -0.873200 0.563300
vt 0.000000 0.405100
vt 0.071400 0.428600
vt 0.085700 0.428600
vt 0.000000 0.439400
vt 1.436600 0.438800
vt 1.873200 0.436700
vt 1.000000 0.632600
vt 0.928600 0.571400
vt 0.914300 0.571400
vt 0.029800 0.564900
vt 0.028500 0.565300
vt 0.029800 0.435100
vt 0.028500 0.434700
vt 0.970200 0.435100
vt 0.971500 0.434700
vt 0.970200 0.564900
vt 0.971500 0.565300
vt 0.924300 0.726600
vt 0.045900 0.419900
vt 0.045900 0.567200
vt 0.029800 0.582600
vt 0.045900 0.846800
vt 0.954100 0.173100
vt 0.954100 0.558800
vt 0.000000 0.712000
g MOD_BoxWall004
f 1/1/1 2/2/2 3/3/3 4/4/4 
f 5/5/5 6/6/6 7/7/7 8/8/8 
f 9/9/9 10/10/10 11/11/11 12/12/12 
f 13/13/13 14/14/14 15/15/15 16/16/16 
f 17/17/17 18/18/18 19/19/19 20/20/20 
f 19/19/19 21/21/21 22/22/22 20/20/20 
f 22/22/22 23/23/23 20/20/20 
f 24/24/24 17/17/17 20/20/20 
f 1/25/1 4/26/4 25/27/25 26/28/26 
f 27/29/27 28/30/28 29/31/29 30/32/30 
f 29/31/29 31/33/31 32/34/32 30/32/30 
f 32/34/32 33/35/33 30/32/30 
f 34/36/34 27/29/27 30/32/30 
f 35/37/35 36/38/36 37/39/37 38/176/38 
f 39/40/39 40/41/40 41/42/41 42/43/42 
f 39/40/39 42/43/42 43/44/43 44/45/44 
f 44/45/44 43/44/43 10/10/10 9/9/9 
f 45/46/45 46/47/46 47/48/47 48/49/48 
f 48/49/48 47/48/47 49/50/49 50/51/50 
f 11/11/11 50/51/50 49/50/49 12/12/12 
f 8/52/8 7/53/7 51/54/51 52/55/52 
f 52/55/52 51/54/51 53/56/53 54/57/54 
f 54/57/54 53/56/53 55/58/55 56/196/56 
f 3/59/3 2/60/2 57/61/57 58/62/58 
f 58/62/58 57/61/57 59/63/59 60/64/60 
f 60/64/60 59/63/59 61/65/61 62/190/62 
f 63/66/63 64/67/64 65/68/65 66/69/66 
f 67/70/67 66/69/66 65/68/65 68/71/68 
f 13/13/13 67/70/67 68/71/68 14/14/14 
f 69/72/69 70/73/70 71/74/71 72/75/72 
f 73/76/73 72/75/72 71/74/71 74/77/74 
f 73/76/73 74/77/74 16/16/16 15/15/15 
f 75/78/75 76/112/76 77/79/77 78/80/78 
f 79/81/79 80/118/80 81/82/81 82/83/82 
f 37/167/37 83/84/83 84/85/84 85/86/85 
f 83/170/83 86/87/86 87/88/87 88/89/88 
f 86/173/86 38/90/38 89/91/89 90/92/90 
f 38/176/38 37/39/37 91/93/91 92/94/92 
f 25/95/25 36/96/36 93/97/93 94/98/94 
f 36/38/36 35/37/35 95/99/95 96/100/96 
f 35/101/35 26/102/26 97/103/97 98/104/98 
f 26/105/26 25/106/25 99/107/99 100/108/100 
f 78/80/78 77/79/77 18/18/18 17/17/17 
f 101/109/101 102/110/102 21/21/21 19/19/19 
f 82/83/82 81/82/81 23/23/23 22/22/22 
f 103/116/103 104/111/104 24/24/24 20/20/20 
f 104/111/104 78/80/78 17/17/17 24/24/24 
f 77/79/77 101/109/101 19/19/19 18/18/18 
f 102/110/102 82/83/82 22/22/22 21/21/21 
f 81/82/81 103/116/103 20/20/20 23/23/23 
f 79/81/79 82/83/82 102/110/102 
f 75/78/75 78/80/78 104/111/104 
f 101/109/101 76/112/76 79/81/79 102/110/102 
f 79/81/79 76/112/76 6/113/6 5/114/5 
f 101/109/101 77/115/77 76/112/76 
f 103/116/103 81/117/81 80/118/80 
f 103/116/103 80/118/80 75/78/75 104/111/104 
f 75/78/75 80/118/80 86/119/86 83/120/83 
f 85/86/85 84/85/84 105/121/105 106/122/106 
f 88/89/88 87/88/87 107/123/107 108/124/108 
f 90/92/90 89/91/89 109/125/109 110/126/110 
f 92/94/92 91/93/91 111/127/111 112/128/112 
f 55/187/55 62/129/62 113/130/113 114/131/114 
f 62/190/62 61/65/61 115/132/115 116/133/116 
f 61/193/61 56/134/56 117/135/117 118/136/118 
f 56/196/56 55/58/55 119/137/119 120/138/120 
f 114/131/114 113/130/113 121/139/121 122/140/122 
f 116/133/116 115/132/115 123/141/123 124/142/124 
f 118/136/118 117/135/117 125/143/125 126/144/126 
f 120/138/120 119/137/119 127/145/127 128/146/128 
f 123/147/123 112/148/112 111/149/111 124/150/124 
f 125/151/125 110/152/110 109/153/109 126/154/126 
f 121/155/121 106/156/106 105/157/105 122/158/122 
f 127/159/127 108/160/108 107/161/107 128/162/128 
f 94/98/94 93/97/93 33/35/33 32/34/32 
f 96/100/96 95/99/95 34/36/34 30/32/30 
f 98/104/98 97/103/97 28/30/28 27/29/27 
f 100/108/100 99/107/99 31/33/31 29/31/29 
f 25/95/25 94/98/94 99/163/99 
f 36/38/36 96/100/96 93/164/93 
f 35/101/35 98/104/98 95/165/95 
f 26/105/26 100/108/100 97/166/97 
f 99/107/99 94/98/94 32/34/32 31/33/31 
f 93/97/93 96/100/96 30/32/30 33/35/33 
f 95/99/95 98/104/98 27/29/27 34/36/34 
f 97/103/97 100/108/100 29/31/29 28/30/28 
f 37/167/37 129/168/129 91/169/91 
f 83/170/83 130/171/130 84/172/84 
f 86/173/86 131/174/131 87/175/87 
f 38/176/38 132/177/132 89/178/89 
f 133/179/133 111/127/111 91/93/91 129/180/129 
f 134/181/134 105/121/105 84/85/84 130/182/130 
f 135/183/135 107/123/107 87/88/87 131/184/131 
f 136/185/136 109/125/109 89/91/89 132/186/132 
f 55/187/55 137/188/137 119/189/119 
f 62/190/62 138/191/138 113/192/113 
f 61/193/61 139/194/139 115/195/115 
f 56/196/56 140/197/140 117/198/117 
f 141/199/141 127/145/127 119/137/119 137/200/137 
f 142/201/142 121/139/121 113/130/113 138/202/138 
f 143/203/143 123/141/123 115/132/115 139/204/139 
f 144/205/144 125/143/125 117/135/117 140/206/140 
f 136/207/136 112/148/112 123/147/123 143/208/143 
f 142/209/142 124/150/124 111/149/111 133/210/133 
f 135/211/135 110/152/110 125/151/125 144/212/144 
f 141/213/141 122/158/122 105/157/105 134/214/134 
f 37/167/37 85/86/85 129/168/129 
f 83/170/83 88/89/88 130/171/130 
f 86/173/86 90/92/90 131/174/131 
f 38/176/38 92/94/92 132/177/132 
f 106/122/106 133/179/133 129/180/129 85/86/85 
f 108/124/108 134/181/134 130/182/130 88/89/88 
f 110/126/110 135/183/135 131/184/131 90/92/90 
f 112/128/112 136/185/136 132/186/132 92/94/92 
f 55/187/55 114/131/114 137/188/137 
f 62/190/62 116/133/116 138/191/138 
f 61/193/61 118/136/118 139/194/139 
f 56/196/56 120/138/120 140/197/140 
f 122/140/122 141/199/141 137/200/137 114/131/114 
f 124/142/124 142/201/142 138/202/138 116/133/116 
f 126/144/126 143/203/143 139/204/139 118/136/118 
f 128/146/128 144/205/144 140/206/140 120/138/120 
f 109/153/109 136/207/136 143/208/143 126/154/126 
f 121/155/121 142/209/142 133/210/133 106/156/106 
f 107/161/107 135/211/135 144/212/144 128/162/128 
f 127/159/127 141/213/141 134/214/134 108/160/108 
f 4/4/4 3/3/3 46/47/46 45/46/45 
f 3/59/3 58/62/58 47/48/47 46/47/46 
f 58/62/58 60/64/60 49/50/49 47/48/47 
f 60/64/60 62/190/62 12/12/12 49/50/49 
f 62/129/62 55/187/55 9/9/9 12/12/12 
f 55/58/55 53/56/53 44/45/44 9/9/9 
f 53/56/53 51/54/51 39/40/39 44/45/44 
f 51/54/51 7/53/7 40/41/40 39/40/39 
f 7/7/7 6/6/6 41/42/41 40/41/40 
f 6/113/6 76/112/76 42/43/42 41/42/41 
f 76/112/76 75/78/75 43/44/43 42/43/42 
f 75/78/75 83/120/83 10/10/10 43/44/43 
f 83/84/83 37/167/37 11/11/11 10/10/10 
f 37/39/37 36/38/36 50/51/50 11/11/11 
f 36/96/36 25/95/25 48/49/48 50/51/50 
f 25/27/25 4/26/4 45/46/45 48/49/48 
f 2/2/2 1/1/1 70/73/70 69/72/69 
f 1/25/1 26/28/26 71/74/71 70/73/70 
f 26/102/26 35/101/35 74/77/74 71/74/71 
f 35/37/35 38/176/38 16/16/16 74/77/74 
f 38/90/38 86/173/86 13/13/13 16/16/16 
f 86/119/86 80/118/80 67/70/67 13/13/13 
f 80/118/80 79/81/79 66/69/66 67/70/67 
f 79/81/79 5/114/5 63/66/63 66/69/66 
f 5/5/5 8/8/8 64/67/64 63/66/63 
f 8/52/8 52/55/52 65/68/65 64/67/64 
f 52/55/52 54/57/54 68/71/68 65/68/65 
f 54/57/54 56/196/56 14/14/14 68/71/68 
f 56/134/56 61/193/61 15/15/15 14/14/14 
f 61/65/61 59/63/59 73/76/73 15/15/15 
f 59/63/59 57/61/57 72/75/72 73/76/73 
f 57/61/57 2/60/2 69/72/69 72/75/72 
