o Wall02.obj
v -1.000000 0.000000 0.250000
v -1.000000 0.000000 -0.250000
v 1.000000 0.000000 -0.250000
v 1.000000 0.000000 0.250000
v -1.000000 3.750000 0.250000
v 1.000000 3.750000 0.250000
v 1.000000 3.750000 -0.250000
v -1.000000 3.750000 -0.250000
v 0.925000 1.540993 0.206940
v 0.925000 2.023731 0.206940
v 0.914932 2.053929 0.206940
v 0.884735 2.063998 0.206940
v -0.884735 2.063998 0.206940
v -0.914932 2.053929 0.206940
v -0.925000 2.023731 0.206940
v -0.925000 1.540993 0.206940
v -0.914932 1.510795 0.206940
v -0.884735 1.500726 0.206940
v 0.914932 1.510795 0.206940
v 0.884735 1.500726 0.206940
v 1.000000 2.165011 -0.250000
v 1.000000 2.175072 0.239933
v 1.000000 1.435794 0.239933
v 1.000000 1.425725 -0.250000
v -1.000000 2.165011 -0.250000
v -1.000000 1.425725 -0.250000
v -1.000000 1.435794 0.239933
v -1.000000 2.175072 0.239933
v -1.000000 3.666049 0.239933
v 1.000000 3.666049 0.239933
v 0.925000 3.045928 0.206940
v 0.925000 3.540713 0.206940
v 0.914932 3.570919 0.206940
v 0.884735 3.580980 0.206940
v -0.884735 3.580980 0.206940
v -0.914932 3.570919 0.206940
v -0.925000 3.540713 0.206940
v -0.925000 3.045928 0.206940
v -0.914932 3.015729 0.206940
v -0.884735 3.005661 0.206940
v 0.914932 3.015729 0.206940
v 0.884735 3.005661 0.206940
v 0.925000 2.305135 0.206940
v 0.925000 2.815392 0.206940
v 0.914932 2.845590 0.206940
v 0.884735 2.855659 0.206940
v -0.884735 2.855659 0.206940
v -0.914932 2.845590 0.206940
v -0.925000 2.815392 0.206940
v -0.925000 2.305135 0.206940
v -0.914932 2.274929 0.206940
v -0.884735 2.264868 0.206940
v 0.914932 2.274929 0.206940
v 0.884735 2.264868 0.206940
v 1.000000 0.153160 0.239933
v -1.000000 0.153160 0.239933
v -0.925000 0.477114 0.196460
v -0.925000 0.278497 0.196460
v -0.914932 0.248291 0.196460
v -0.884735 0.238230 0.196460
v 0.884735 0.238230 0.196460
v 0.914932 0.248291 0.196460
v 0.925000 0.278497 0.196460
v 0.925000 0.477114 0.196460
v 0.914932 0.507312 0.196460
v 0.884735 0.517381 0.196460
v -0.914932 0.507312 0.196460
v -0.884735 0.517381 0.196460
v -0.925000 0.925689 0.196460
v -0.925000 0.707649 0.196460
v -0.914932 0.677451 0.196460
v -0.884735 0.667382 0.196460
v 0.884735 0.667382 0.196460
v 0.914932 0.677451 0.196460
v 0.925000 0.707649 0.196460
v 0.925000 0.925689 0.196460
v 0.914932 0.955894 0.196460
v 0.884735 0.965955 0.196460
v -0.914932 0.955894 0.196460
v -0.884735 0.965955 0.196460
v -1.000000 1.051025 0.239933
v 1.000000 1.051025 0.239933
v 1.000000 3.655981 -0.250000
v 1.000000 2.940728 0.239933
v 1.000000 2.930660 -0.250000
v 1.000000 0.163229 -0.250000
v 1.000000 0.592382 -0.250000
v 1.000000 0.602450 0.239933
v 1.000000 1.040956 -0.250000
v -1.000000 3.655981 -0.250000
v -1.000000 2.930660 -0.250000
v -1.000000 0.163229 -0.250000
v -1.000000 0.592382 -0.250000
v -1.000000 1.040956 -0.250000
v -1.000000 2.940728 0.239933
v -1.000000 3.615714 0.250000
v -1.000000 2.890393 0.250000
v -1.000000 0.602450 0.239933
v 0.950000 0.950689 0.250000
v 0.950000 0.682649 0.250000
v -0.909735 0.990956 0.250000
v 0.909735 0.990956 0.250000
v -0.950000 0.682649 0.250000
v -0.950000 0.950689 0.250000
v 0.909735 0.642382 0.250000
v -0.909735 0.642382 0.250000
v 0.950000 0.502114 0.250000
v 0.950000 0.253496 0.250000
v -0.909735 0.542381 0.250000
v 0.909735 0.542381 0.250000
v -0.950000 0.253496 0.250000
v -0.950000 0.502114 0.250000
v 0.909735 0.213229 0.250000
v -0.909735 0.213229 0.250000
v 0.950000 2.048731 0.250000
v 0.950000 1.515993 0.250000
v -0.909735 2.088998 0.250000
v 0.909735 2.088998 0.250000
v -0.950000 1.515993 0.250000
v -0.950000 2.048731 0.250000
v 0.909735 1.475726 0.250000
v -0.909735 1.475726 0.250000
v 0.950000 2.840392 0.250000
v 0.950000 2.280134 0.250000
v -0.909735 2.880659 0.250000
v 0.909735 2.880659 0.250000
v -0.950000 2.280134 0.250000
v -0.950000 2.840392 0.250000
v 0.909735 2.239867 0.250000
v -0.909735 2.239867 0.250000
v 0.950000 3.565713 0.250000
v 0.950000 3.020927 0.250000
v -0.909735 3.605980 0.250000
v 0.909735 3.605980 0.250000
v -0.950000 3.020927 0.250000
v -0.950000 3.565713 0.250000
v 0.909735 2.980660 0.250000
v -0.909735 2.980660 0.250000
v 0.939933 0.652451 0.250000
v 0.939933 0.980895 0.250000
v -0.939933 0.980895 0.250000
v -0.939933 0.652451 0.250000
v 0.939933 0.223290 0.250000
v 0.939933 0.532312 0.250000
v -0.939933 0.532312 0.250000
v -0.939933 0.223290 0.250000
v 0.939933 1.485794 0.250000
v 0.939933 2.078929 0.250000
v -0.939933 2.078929 0.250000
v -0.939933 1.485794 0.250000
v 0.939933 2.249928 0.250000
v 0.939933 2.870590 0.250000
v -0.939933 2.870590 0.250000
v -0.939933 2.249928 0.250000
v 0.939933 2.990729 0.250000
v 0.939933 3.595919 0.250000
v -0.939933 3.595919 0.250000
v -0.939933 2.990729 0.250000
vn -0.590403 -0.551678 0.589131
vn -0.577350 -0.577350 -0.577350
vn 0.577350 -0.577350 -0.577350
vn 0.590403 -0.551678 0.589131
vn -0.601726 0.530080 0.597445
vn 0.601726 0.530080 0.597445
vn 0.577350 0.577350 -0.577350
vn -0.577350 0.577350 -0.577350
vn -0.369173 0.057753 0.927565
vn -0.611301 -0.095632 0.785599
vn -0.389606 -0.389587 0.834523
vn -0.057760 -0.369167 0.927566
vn 0.095644 -0.611293 0.785604
vn 0.389606 -0.389587 0.834523
vn 0.369172 -0.057754 0.927565
vn 0.611301 0.095632 0.785599
vn 0.389606 0.389587 0.834523
vn 0.057760 0.369167 0.927566
vn -0.389606 0.389587 0.834523
vn -0.095644 0.611293 0.785604
vn 0.707107 0.000000 -0.707107
vn 0.321127 -0.007116 0.947009
vn 0.432688 -0.078335 0.898134
vn 0.707107 0.000000 -0.707107
vn -0.707107 0.000000 -0.707107
vn -0.707107 0.000000 -0.707107
vn -0.432688 -0.078335 0.898134
vn -0.419052 -0.008407 0.907923
vn -0.622444 0.038852 0.781699
vn 0.429575 0.035956 0.902315
vn -0.369172 0.057754 0.927565
vn -0.611311 -0.095612 0.785594
vn -0.389568 -0.389611 0.834530
vn -0.057725 -0.369188 0.927560
vn 0.095584 -0.611326 0.785585
vn 0.389569 -0.389613 0.834529
vn 0.369179 -0.057741 0.927563
vn 0.611300 0.095632 0.785599
vn 0.389607 0.389585 0.834524
vn 0.057761 0.369167 0.927566
vn -0.389607 0.389587 0.834523
vn -0.095646 0.611294 0.785603
vn -0.369180 0.057741 0.927563
vn -0.611300 -0.095632 0.785599
vn -0.389605 -0.389587 0.834523
vn -0.057760 -0.369167 0.927566
vn 0.095644 -0.611293 0.785604
vn 0.389606 -0.389587 0.834523
vn 0.369172 -0.057754 0.927565
vn 0.611311 0.095612 0.785594
vn 0.389567 0.389613 0.834529
vn 0.057724 0.369189 0.927560
vn -0.389567 0.389613 0.834529
vn -0.095582 0.611325 0.785586
vn 0.429053 -0.045659 0.902124
vn -0.429053 -0.045659 0.902124
vn 0.400563 -0.063311 0.914079
vn 0.661990 0.104605 0.742178
vn 0.429107 0.429156 0.794791
vn 0.063277 0.400580 0.914074
vn -0.104573 0.662003 0.742170
vn -0.429107 0.429156 0.794791
vn -0.400571 0.063297 0.914077
vn -0.661979 -0.104628 0.742184
vn -0.429149 -0.429129 0.794783
vn -0.063318 -0.400558 0.914081
vn 0.429149 -0.429129 0.794783
vn 0.104641 -0.661972 0.742188
vn 0.400571 -0.063297 0.914077
vn 0.661979 0.104628 0.742184
vn 0.429149 0.429129 0.794783
vn 0.063318 0.400559 0.914081
vn -0.104642 0.661973 0.742188
vn -0.429149 0.429129 0.794782
vn -0.400563 0.063311 0.914079
vn -0.661990 -0.104605 0.742178
vn -0.429107 -0.429156 0.794791
vn -0.063277 -0.400580 0.914074
vn 0.429107 -0.429156 0.794791
vn 0.104573 -0.662004 0.742170
vn -0.428637 0.057558 0.901641
vn 0.428637 0.057558 0.901641
vn 0.707107 0.000000 -0.707107
vn 0.327159 -0.013650 0.944871
vn 0.707107 0.000000 -0.707107
vn 0.707107 0.000000 -0.707107
vn 0.707107 0.000000 -0.707107
vn 0.327159 -0.013650 0.944871
vn 0.707107 0.000000 -0.707107
vn -0.707107 0.000000 -0.707107
vn -0.894427 0.000000 -0.447214
vn -0.707107 0.000000 -0.707107
vn -0.707107 0.000000 -0.707107
vn -0.707107 0.000000 -0.707107
vn -0.341429 -0.017494 0.939745
vn -0.547818 0.010669 0.836529
vn -0.546025 0.011026 0.837696
vn -0.327159 -0.013650 0.944871
vn -0.434614 -0.071833 0.897747
vn -0.432230 0.070921 0.898970
vn 0.072169 -0.443902 0.893164
vn -0.072169 -0.443901 0.893165
vn 0.432230 0.070921 0.898970
vn 0.434614 -0.071833 0.897747
vn -0.070475 0.418643 0.905412
vn 0.070475 0.418642 0.905412
vn -0.434608 -0.071849 0.897749
vn -0.434614 0.071833 0.897747
vn 0.072217 -0.443880 0.893171
vn -0.072217 -0.443880 0.893171
vn 0.434614 0.071833 0.897747
vn 0.434608 -0.071849 0.897749
vn -0.072169 0.443902 0.893165
vn 0.072169 0.443901 0.893165
vn -0.395275 -0.065322 0.916237
vn -0.390224 0.063410 0.918534
vn 0.066424 -0.419091 0.905511
vn -0.066424 -0.419091 0.905511
vn 0.390224 0.063410 0.918534
vn 0.395274 -0.065322 0.916238
vn -0.062850 0.376351 0.924343
vn 0.062850 0.376351 0.924343
vn -0.392651 -0.064330 0.917435
vn -0.393173 0.064511 0.917199
vn 0.064770 -0.402122 0.913292
vn -0.064770 -0.402122 0.913292
vn 0.399787 0.060093 0.914636
vn 0.399059 -0.068138 0.914390
vn -0.065086 0.406124 0.911497
vn 0.065086 0.406123 0.911498
vn -0.392657 -0.064316 0.917433
vn -0.390224 0.063410 0.918534
vn 0.064730 -0.402144 0.913285
vn -0.064729 -0.402142 0.913286
vn 0.395622 0.058800 0.916529
vn 0.397810 -0.068427 0.914913
vn -0.062852 0.376352 0.924342
vn 0.062852 0.376350 0.924343
vn -0.279713 0.277209 0.919193
vn -0.284198 -0.286014 0.915110
vn 0.284198 -0.286015 0.915110
vn 0.279713 0.277208 0.919193
vn -0.284198 0.286015 0.915110
vn -0.284233 -0.286005 0.915103
vn 0.284233 -0.286005 0.915102
vn 0.284198 0.286014 0.915110
vn -0.249326 0.246910 0.936414
vn -0.258451 -0.262786 0.929595
vn 0.258451 -0.262787 0.929595
vn 0.249326 0.246910 0.936414
vn -0.254880 0.257272 0.932120
vn -0.253995 -0.255706 0.932792
vn 0.253995 -0.255706 0.932792
vn 0.254880 0.257272 0.932120
vn -0.249328 0.246909 0.936414
vn -0.253965 -0.255715 0.932798
vn 0.253965 -0.255716 0.932797
vn 0.249327 0.246908 0.936415
vt 1.000000 0.000000
vt 1.000000 1.000000
vt 0.000000 1.000000
vt 0.000000 0.000000
vt 0.000000 0.000000
vt 1.000000 0.000000
vt 1.000000 1.000000
vt 0.000000 1.000000
vt 1.000000 0.476500
vt 1.000000 0.614400
vt 0.994600 0.630900
vt 0.978200 0.636400
vt 0.021800 0.636400
vt 0.005400 0.630900
vt 0.000000 0.614400
vt 0.000000 0.476500
vt 0.005400 0.460000
vt 0.021800 0.454500
vt 0.994600 0.460000
vt 0.978200 0.454500
vt 1.000000 0.636400
vt 1.000000 0.454500
vt 1.000000 0.636400
vt 0.000000 0.636400
vt 0.000000 0.454500
vt 1.000000 0.454500
vt 1.000000 0.469700
vt 0.000000 0.636400
vt 0.000000 0.454500
vt 1.000000 1.000000
vt 0.000000 1.000000
vt 0.020100 0.909100
vt 1.000000 0.948000
vt 1.000000 0.829500
vt 1.000000 0.897800
vt 0.994600 0.906300
vt 0.978200 0.909100
vt 0.021800 0.909100
vt 0.005400 0.906300
vt 0.000000 0.897800
vt 0.000000 0.829500
vt 0.005400 0.821000
vt 0.021800 0.818200
vt 0.994600 0.821000
vt 0.978200 0.818200
vt 1.000000 0.655800
vt 1.000000 0.798700
vt 0.994600 0.813300
vt 0.978200 0.818200
vt 0.021800 0.818200
vt 0.005400 0.813300
vt 0.000000 0.798700
vt 0.000000 0.655800
vt 0.005400 0.641200
vt 0.021800 0.636400
vt 0.994600 0.641200
vt 0.978200 0.636400
vt 0.000000 0.000000
vt 1.000000 0.000000
vt 0.995000 0.085300
vt 0.000000 0.246500
vt 0.000000 0.117100
vt 0.005400 0.097500
vt 0.021800 0.090900
vt 0.978200 0.090900
vt 0.994600 0.097500
vt 1.000000 0.117100
vt 1.000000 0.246500
vt 0.994600 0.266200
vt 0.978200 0.272700
vt 0.005400 0.266200
vt 0.021800 0.272700
vt 0.000000 0.351400
vt 0.000000 0.285000
vt 0.005400 0.275800
vt 0.021800 0.272700
vt 0.978200 0.272700
vt 0.994600 0.275800
vt 1.000000 0.285000
vt 1.000000 0.351400
vt 0.994600 0.360600
vt 0.978200 0.363600
vt 0.005400 0.360600
vt 0.021800 0.363600
vt 0.020100 0.363600
vt 0.979900 0.454500
vt 0.000000 0.445000
vt 1.000000 1.000000
vt 0.000000 1.000000
vt -0.052200 0.870600
vt 1.000000 0.909100
vt 1.000000 0.818200
vt 0.000000 0.000000
vt 1.000000 0.000000
vt 1.000000 0.090900
vt 1.000000 0.272700
vt 1.000000 0.363600
vt 0.000000 0.355500
vt 1.000000 1.000000
vt 0.000000 1.000000
vt 0.000000 0.909100
vt 1.000000 0.909100
vt 0.000000 0.818200
vt 1.000000 0.818200
vt 0.000000 0.000000
vt 1.000000 0.000000
vt 1.000000 0.090900
vt 0.000000 0.090900
vt 1.000000 0.272700
vt 0.000000 0.272700
vt 1.000000 0.363600
vt 0.000000 0.363600
vt 1.000000 1.000000
vt 0.000000 1.000000
vt 0.000000 0.909100
vt 1.000000 0.818200
vt 1.000000 0.901400
vt 1.002100 0.927300
vt 0.000000 0.818200
vt 1.000000 0.804300
vt 0.000000 0.000000
vt 1.000000 0.000000
vt 1.000000 0.108000
vt 0.000000 0.090900
vt 0.000000 0.272700
vt 0.000000 0.363600
vt 1.000000 0.353100
vt 1.000000 0.283200
vt 0.021200 0.363600
vt 0.978800 0.363600
vt 0.000000 0.283200
vt 0.000000 0.353100
vt 0.978800 0.272700
vt 0.021200 0.272700
vt 1.000000 0.250500
vt 1.000000 0.113200
vt 0.021200 0.272700
vt 0.978800 0.272700
vt 0.000000 0.113200
vt 0.000000 0.250500
vt 0.978800 0.090900
vt 0.021200 0.090900
vt 1.000000 0.617300
vt 1.000000 0.473600
vt 0.021200 0.636400
vt 0.978800 0.636400
vt 0.000000 0.473600
vt 0.000000 0.617300
vt 0.979900 0.454500
vt 0.978800 0.454500
vt 0.021200 0.454500
vt 1.000000 0.801000
vt 1.000000 0.653500
vt 0.021200 0.818200
vt 0.978800 0.818200
vt 0.000000 0.653500
vt 0.000000 0.801000
vt 0.978800 0.636400
vt 0.021200 0.636400
vt 1.000000 0.899300
vt 1.000000 0.828000
vt 0.020100 0.909100
vt 0.021200 0.909100
vt 0.978800 0.909100
vt 0.000000 0.828000
vt 0.000000 0.899300
vt 0.978800 0.818200
vt 0.021200 0.818200
vt 0.180600 0.274600
vt 1.073900 0.278900
vt 1.147700 0.274700
vt 0.979900 0.363600
vt 0.931600 0.363600
vt 0.884500 0.363600
vt 0.819400 0.361800
vt -0.073900 0.357400
vt -0.147700 0.361700
vt 0.020100 0.272700
vt 0.068400 0.272700
vt 0.115500 0.272700
vt 0.000000 0.090900
vt 1.069800 0.104000
vt 1.139500 0.094800
vt 0.979900 0.272700
vt 0.928200 0.272700
vt 0.877700 0.272700
vt 0.919500 0.272700
vt -0.236200 0.093200
vt -0.472400 -0.064000
vt 0.020100 0.090900
vt 0.071800 0.090900
vt 0.122300 0.090900
vt 0.989400 0.102000
vt 0.989400 0.261600
vt 0.010600 0.261600
vt 0.010600 0.102000
vt 0.989400 0.278000
vt 0.989400 0.358400
vt 0.010600 0.358400
vt 0.010600 0.278000
vt 0.194800 0.458200
vt 1.081300 0.466000
vt 1.162700 0.458400
vt 0.979900 0.636400
vt 0.936900 0.636400
vt 0.895100 0.636400
vt 0.805200 0.632700
vt -0.081300 0.624900
vt -0.162700 0.632500
vt 0.083200 0.454500
vt 0.063100 0.454500
vt 0.104900 0.454500
vt 0.106000 0.645100
vt 1.090300 0.646900
vt 1.180700 0.640200
vt 0.979900 0.818200
vt 0.942200 0.818200
vt 0.905500 0.818200
vt 0.894000 0.809400
vt -0.090300 0.807700
vt -0.180700 0.814300
vt 0.020100 0.636400
vt 0.057800 0.636400
vt 0.094500 0.636400
vt 0.190500 0.820000
vt 1.079100 0.824000
vt 1.158200 0.820100
vt 0.947400 0.909100
vt 0.935500 0.909100
vt 0.892100 0.909100
vt 0.904700 0.904300
vt -0.079100 0.903200
vt -0.158200 0.907200
vt 0.020100 0.818200
vt 0.064500 0.818200
vt 0.107900 0.818200
vt 0.989400 0.464100
vt 0.989400 0.626800
vt 0.010600 0.626800
vt 0.010600 0.464100
vt 0.989400 0.823100
vt 0.989400 0.904200
vt 0.010600 0.904200
vt 0.010600 0.823100
vt 0.989400 0.645000
vt 0.989400 0.809600
vt 0.010600 0.809600
vt 0.010600 0.645000
g Box005
f 1/1/1 2/2/2 3/3/3 4/4/4 
f 5/5/5 6/6/6 7/7/7 8/8/8 
f 9/9/9 10/10/10 11/11/11 12/12/12 
f 12/12/12 13/13/13 14/14/14 15/15/15 
f 15/15/15 16/16/16 17/17/17 18/18/18 
f 12/12/12 15/15/15 18/18/18 9/9/9 
f 19/19/19 9/9/9 18/18/18 20/20/20 
f 21/21/21 22/213/22 23/201/23 24/22/24 
f 25/23/25 21/24/21 24/25/24 26/26/26 
f 27/27/27 28/207/28 25/28/25 26/29/26 
f 6/30/6 5/31/5 29/32/29 30/33/30 
f 31/34/31 32/35/32 33/36/33 34/37/34 
f 34/37/34 35/38/35 36/39/36 37/40/37 
f 37/40/37 38/41/38 39/42/39 40/43/40 
f 34/37/34 37/40/37 40/43/40 31/34/31 
f 41/44/41 31/34/31 40/43/40 42/45/42 
f 43/46/43 44/47/44 45/48/45 46/49/46 
f 46/49/46 47/50/47 48/51/48 49/52/49 
f 49/52/49 50/53/50 51/54/51 52/55/52 
f 46/49/46 49/52/49 52/55/52 43/46/43 
f 53/56/53 43/46/43 52/55/52 54/57/54 
f 1/58/1 4/59/4 55/60/55 56/190/56 
f 57/61/57 58/62/58 59/63/59 60/64/60 
f 60/64/60 61/65/61 62/66/62 63/67/63 
f 63/67/63 64/68/64 65/69/65 66/70/66 
f 60/64/60 63/67/63 66/70/66 57/61/57 
f 67/71/67 57/61/57 66/70/66 68/72/68 
f 69/73/69 70/74/70 71/75/71 72/76/72 
f 72/76/72 73/77/73 74/78/74 75/79/75 
f 75/79/75 76/80/76 77/81/77 78/82/78 
f 72/76/72 75/79/75 78/82/78 69/73/69 
f 79/83/79 69/73/69 78/82/78 80/84/80 
f 81/85/81 82/172/82 23/86/23 27/87/27 
f 7/88/7 6/89/6 30/90/30 83/91/83 
f 83/91/83 30/90/30 84/225/84 85/92/85 
f 85/92/85 84/225/84 22/213/22 21/21/21 
f 4/93/4 3/94/3 86/95/86 55/181/55 
f 55/181/55 86/95/86 87/96/87 88/169/88 
f 88/169/88 87/96/87 89/97/89 82/98/82 
f 82/98/82 89/97/89 24/22/24 23/201/23 
f 8/99/8 7/100/7 83/101/83 90/102/90 
f 90/102/90 83/101/83 85/103/85 91/104/91 
f 91/104/91 85/103/85 21/24/21 25/23/25 
f 3/105/3 2/106/2 92/107/92 86/108/86 
f 86/108/86 92/107/92 93/109/93 87/110/87 
f 87/110/87 93/109/93 94/111/94 89/112/89 
f 89/112/89 94/111/94 26/26/26 24/25/24 
f 5/113/5 8/114/8 90/115/90 29/118/29 
f 95/116/95 96/117/96 29/118/29 91/119/91 
f 29/118/29 90/115/90 91/119/91 
f 28/207/28 97/120/97 95/116/95 91/119/91 
f 28/207/28 91/119/91 25/28/25 
f 2/121/2 1/122/1 56/123/56 92/124/92 
f 93/125/93 92/124/92 56/123/56 98/187/98 
f 93/125/93 98/187/98 81/175/81 94/126/94 
f 94/126/94 81/175/81 27/27/27 26/29/26 
f 88/169/88 82/98/82 99/127/99 100/128/100 
f 82/172/82 81/85/81 101/129/101 102/130/102 
f 81/175/81 98/187/98 103/131/103 104/132/104 
f 98/178/98 88/184/88 105/133/105 106/134/106 
f 55/181/55 88/169/88 107/135/107 108/136/108 
f 88/184/88 98/178/98 109/137/109 110/138/110 
f 98/187/98 56/123/56 111/139/111 112/140/112 
f 56/190/56 55/60/55 113/141/113 114/142/114 
f 108/136/108 107/135/107 64/68/64 63/67/63 
f 110/138/110 109/137/109 68/72/68 66/70/66 
f 112/140/112 111/139/111 58/62/58 57/61/57 
f 114/142/114 113/141/113 61/65/61 60/64/60 
f 100/128/100 99/127/99 76/80/76 75/79/75 
f 102/130/102 101/129/101 80/84/80 78/82/78 
f 104/132/104 103/131/103 70/74/70 69/73/69 
f 106/134/106 105/133/105 73/77/73 72/76/72 
f 23/201/23 22/213/22 115/143/115 116/144/116 
f 22/204/22 28/222/28 117/145/117 118/146/118 
f 28/207/28 27/27/27 119/147/119 120/148/120 
f 27/210/27 23/149/23 121/150/121 122/151/122 
f 22/213/22 84/225/84 123/152/123 124/153/124 
f 84/216/84 95/234/95 125/154/125 126/155/126 
f 97/120/97 28/207/28 127/156/127 128/157/128 
f 28/222/28 22/204/22 129/158/129 130/159/130 
f 84/225/84 30/90/30 131/160/131 132/161/132 
f 30/228/30 29/162/29 133/163/133 134/164/134 
f 96/117/96 95/116/95 135/165/135 136/166/136 
f 95/234/95 84/216/84 137/167/137 138/168/138 
f 116/144/116 115/143/115 10/10/10 9/9/9 
f 118/146/118 117/145/117 13/13/13 12/12/12 
f 120/148/120 119/147/119 16/16/16 15/15/15 
f 122/151/122 121/150/121 20/20/20 18/18/18 
f 132/161/132 131/160/131 32/35/32 31/34/31 
f 134/164/134 133/163/133 35/38/35 34/37/34 
f 136/166/136 135/165/135 38/41/38 37/40/37 
f 138/168/138 137/167/137 42/45/42 40/43/40 
f 124/153/124 123/152/123 44/47/44 43/46/43 
f 126/155/126 125/154/125 47/50/47 46/49/46 
f 128/157/128 127/156/127 50/53/50 49/52/49 
f 130/159/130 129/158/129 54/57/54 52/55/52 
f 88/169/88 139/170/139 105/171/105 
f 82/172/82 140/173/140 99/174/99 
f 81/175/81 141/176/141 101/177/101 
f 98/178/98 142/179/142 103/180/103 
f 55/181/55 143/182/143 113/183/113 
f 88/184/88 144/185/144 107/186/107 
f 98/187/98 145/188/145 109/189/109 
f 56/190/56 146/191/146 111/192/111 
f 62/66/62 61/65/61 113/141/113 143/193/143 
f 65/69/65 64/68/64 107/135/107 144/194/144 
f 67/71/67 68/72/68 109/137/109 145/195/145 
f 59/63/59 58/62/58 111/139/111 146/196/146 
f 74/78/74 73/77/73 105/133/105 139/197/139 
f 77/81/77 76/80/76 99/127/99 140/198/140 
f 79/83/79 80/84/80 101/129/101 141/199/141 
f 71/75/71 70/74/70 103/131/103 142/200/142 
f 23/201/23 147/202/147 121/203/121 
f 22/204/22 148/205/148 115/206/115 
f 28/207/28 149/208/149 117/209/117 
f 27/210/27 150/211/150 119/212/119 
f 22/213/22 151/214/151 129/215/129 
f 84/216/84 152/217/152 123/218/123 
f 95/219/95 153/220/153 125/221/125 
f 28/222/28 154/223/154 127/224/127 
f 84/225/84 155/226/155 137/227/137 
f 30/228/30 156/229/156 131/230/131 
f 29/231/29 157/232/157 133/233/133 
f 95/234/95 158/235/158 135/236/135 
f 19/19/19 20/20/20 121/150/121 147/237/147 
f 11/11/11 10/10/10 115/143/115 148/238/148 
f 14/14/14 13/13/13 117/145/117 149/239/149 
f 17/17/17 16/16/16 119/147/119 150/240/150 
f 41/44/41 42/45/42 137/167/137 155/241/155 
f 33/36/33 32/35/32 131/160/131 156/242/156 
f 36/39/36 35/38/35 133/163/133 157/243/157 
f 39/42/39 38/41/38 135/165/135 158/244/158 
f 53/56/53 54/57/54 129/158/129 151/245/151 
f 45/48/45 44/47/44 123/152/123 152/246/152 
f 48/51/48 47/50/47 125/154/125 153/247/153 
f 51/54/51 50/53/50 127/156/127 154/248/154 
f 88/169/88 100/128/100 139/170/139 
f 82/172/82 102/130/102 140/173/140 
f 81/175/81 104/132/104 141/176/141 
f 98/178/98 106/134/106 142/179/142 
f 55/181/55 108/136/108 143/182/143 
f 88/184/88 110/138/110 144/185/144 
f 98/187/98 112/140/112 145/188/145 
f 56/190/56 114/142/114 146/191/146 
f 63/67/63 62/66/62 143/193/143 108/136/108 
f 66/70/66 65/69/65 144/194/144 110/138/110 
f 57/61/57 67/71/67 145/195/145 112/140/112 
f 60/64/60 59/63/59 146/196/146 114/142/114 
f 75/79/75 74/78/74 139/197/139 100/128/100 
f 78/82/78 77/81/77 140/198/140 102/130/102 
f 69/73/69 79/83/79 141/199/141 104/132/104 
f 72/76/72 71/75/71 142/200/142 106/134/106 
f 23/201/23 116/144/116 147/202/147 
f 22/204/22 118/146/118 148/205/148 
f 28/207/28 120/148/120 149/208/149 
f 27/210/27 122/151/122 150/211/150 
f 22/213/22 124/153/124 151/214/151 
f 84/216/84 126/155/126 152/217/152 
f 128/157/128 153/220/153 95/219/95 97/120/97 
f 28/222/28 130/159/130 154/223/154 
f 84/225/84 132/161/132 155/226/155 
f 30/228/30 134/164/134 156/229/156 
f 136/166/136 157/232/157 29/231/29 96/117/96 
f 95/234/95 138/168/138 158/235/158 
f 9/9/9 19/19/19 147/237/147 116/144/116 
f 12/12/12 11/11/11 148/238/148 118/146/118 
f 15/15/15 14/14/14 149/239/149 120/148/120 
f 18/18/18 17/17/17 150/240/150 122/151/122 
f 31/34/31 41/44/41 155/241/155 132/161/132 
f 34/37/34 33/36/33 156/242/156 134/164/134 
f 37/40/37 36/39/36 157/243/157 136/166/136 
f 40/43/40 39/42/39 158/244/158 138/168/138 
f 43/46/43 53/56/53 151/245/151 124/153/124 
f 46/49/46 45/48/45 152/246/152 126/155/126 
f 49/52/49 48/51/48 153/247/153 128/157/128 
f 52/55/52 51/54/51 154/248/154 130/159/130 
