o Wall01.obj
v -0.949119 0.000000 0.250000
v -0.949119 0.000000 -0.250000
v 0.949119 0.000000 -0.250000
v 0.949119 0.000000 0.250000
v -0.949119 3.750000 0.250000
v 0.949119 3.750000 0.250000
v 0.949119 3.750000 -0.250000
v -0.949119 3.750000 -0.250000
v 0.949119 1.415949 0.218750
v -0.949119 1.413777 0.218750
v -0.949119 1.042817 0.218750
v 0.949119 1.042817 0.218750
v 1.000000 1.423367 -0.250000
v 1.000000 1.415949 0.218750
v 1.000000 1.042817 0.218750
v 1.000000 1.011573 -0.250000
v -0.949119 1.423367 -0.250000
v 0.949119 1.423367 -0.250000
v 0.949119 1.011573 -0.250000
v -0.949119 1.011573 -0.250000
v -1.000000 1.413777 0.218750
v -1.000000 1.423367 -0.250000
v -1.000000 1.011573 -0.250000
v -1.000000 1.042817 0.218750
v -0.949119 3.652536 0.218750
v 0.949119 3.652536 0.218750
v 0.872796 1.623348 0.159063
v 0.872796 3.421305 0.159063
v 0.840999 3.515050 0.159063
v 0.745593 3.546293 0.159063
v -0.745593 3.546293 0.159063
v -0.840999 3.515050 0.159063
v -0.872796 3.421305 0.159063
v -0.872796 1.623348 0.159063
v -0.840999 1.529610 0.159063
v -0.745593 1.498360 0.159063
v 0.840999 1.529610 0.159063
v 0.745593 1.498360 0.159063
v 0.949119 0.162920 0.218750
v -0.949119 0.162920 0.218750
v -0.872796 0.811592 0.159063
v -0.872796 0.358147 0.159063
v -0.840999 0.264410 0.159063
v -0.745593 0.233159 0.159063
v 0.745593 0.233159 0.159063
v 0.840999 0.264410 0.159063
v 0.872796 0.358147 0.159063
v 0.872796 0.811592 0.159063
v 0.840999 0.905330 0.159063
v 0.745593 0.936580 0.159063
v -0.840999 0.905330 0.159063
v -0.745593 0.936580 0.159063
v 1.000000 3.750000 -0.250000
v 1.000000 3.750000 0.250000
v 1.000000 3.652536 0.218750
v 1.000000 3.621286 -0.250000
v 1.000000 0.000000 0.250000
v 1.000000 0.000000 -0.250000
v 1.000000 0.158166 -0.250000
v 1.000000 0.162920 0.218750
v 0.949119 3.621286 -0.250000
v -0.949119 3.621286 -0.250000
v -0.949119 0.158166 -0.250000
v 0.949119 0.158166 -0.250000
v -1.000000 3.750000 0.250000
v -1.000000 3.750000 -0.250000
v -1.000000 3.621286 -0.250000
v -1.000000 3.652536 0.218750
v -1.000000 0.000000 -0.250000
v -1.000000 0.000000 0.250000
v -1.000000 0.162920 0.218750
v -1.000000 0.158166 -0.250000
v 0.898237 3.446302 0.250000
v 0.898237 1.598350 0.250000
v -0.771034 3.571291 0.250000
v 0.771034 3.571291 0.250000
v -0.898237 1.598350 0.250000
v -0.898237 3.446302 0.250000
v 0.771034 1.473362 0.250000
v -0.771034 1.473362 0.250000
v 0.898237 0.836590 0.250000
v 0.898237 0.333150 0.250000
v -0.771034 0.961578 0.250000
v 0.771034 0.961578 0.250000
v -0.898237 0.333150 0.250000
v -0.898237 0.836590 0.250000
v 0.771034 0.208161 0.250000
v -0.771034 0.208161 0.250000
v 0.866440 1.504613 0.250000
v 0.866440 3.540047 0.250000
v -0.866440 3.540047 0.250000
v -0.866440 1.504613 0.250000
v 0.866440 0.239412 0.250000
v 0.866440 0.930328 0.250000
v -0.866440 0.930328 0.250000
v -0.866440 0.239412 0.250000
vn 0.000000 -0.637033 0.770836
vn 0.000000 -0.707107 -0.707107
vn 0.000000 -0.707107 -0.707107
vn 0.000000 -0.637033 0.770836
vn 0.000000 0.589355 0.807874
vn 0.000000 0.589355 0.807874
vn 0.000000 0.707107 -0.707107
vn 0.000000 0.707107 -0.707107
vn 0.129415 -0.122279 0.984022
vn -0.128791 -0.121531 0.984197
vn -0.123994 0.097170 0.987514
vn 0.123994 0.097170 0.987514
vn 0.707107 0.000000 -0.707107
vn 0.707107 0.000000 0.707107
vn 0.707107 0.000000 0.707107
vn 0.707107 0.000000 -0.707107
vn 0.000000 0.000000 -1.000000
vn 0.000000 0.000000 -1.000000
vn 0.000000 0.000000 -1.000000
vn 0.000000 0.000000 -1.000000
vn -0.707107 0.000000 0.707107
vn -0.707107 0.000000 -0.707107
vn -0.707107 0.000000 -0.707107
vn -0.707107 0.000000 0.707107
vn -0.126345 0.007621 0.991957
vn 0.126345 0.007621 0.991957
vn -0.456707 0.074536 0.886489
vn -0.751194 -0.122588 0.648598
vn -0.501011 -0.506711 0.701593
vn -0.072421 -0.458749 0.885610
vn 0.119064 -0.754207 0.645752
vn 0.501011 -0.506711 0.701593
vn 0.456709 -0.074531 0.886488
vn 0.751191 0.122596 0.648601
vn 0.501025 0.506702 0.701589
vn 0.072435 0.458743 0.885612
vn -0.501025 0.506702 0.701589
vn -0.119088 0.754199 0.645757
vn 0.134573 -0.086298 0.987139
vn -0.134573 -0.086298 0.987139
vn 0.456707 -0.074536 0.886489
vn 0.751191 0.122596 0.648601
vn 0.501025 0.506703 0.701588
vn 0.072435 0.458743 0.885612
vn -0.119087 0.754199 0.645757
vn -0.501025 0.506702 0.701589
vn -0.456707 0.074536 0.886489
vn -0.751191 -0.122596 0.648601
vn -0.501025 -0.506702 0.701589
vn -0.072435 -0.458743 0.885612
vn 0.501025 -0.506702 0.701589
vn 0.119088 -0.754199 0.645757
vn 0.577350 0.577350 -0.577350
vn 0.646933 0.449410 0.616042
vn 0.711366 -0.108598 0.694381
vn 0.707107 0.000000 -0.707107
vn 0.617420 -0.501112 0.606366
vn 0.577350 -0.577350 -0.577350
vn 0.707107 0.000000 -0.707107
vn 0.708695 0.066751 0.702351
vn 0.000000 0.000000 -1.000000
vn 0.000000 0.000000 -1.000000
vn 0.000000 0.000000 -1.000000
vn 0.000000 0.000000 -1.000000
vn -0.646933 0.449410 0.616042
vn -0.577350 0.577350 -0.577350
vn -0.707107 0.000000 -0.707107
vn -0.711366 -0.108598 0.694381
vn -0.577350 -0.577350 -0.577350
vn -0.617420 -0.501112 0.606366
vn -0.708695 0.066751 0.702351
vn -0.707107 0.000000 -0.707107
vn -0.407246 -0.082061 0.909624
vn -0.402797 0.080312 0.911759
vn 0.078905 -0.455556 0.886703
vn -0.078905 -0.455556 0.886703
vn 0.403226 0.080482 0.911554
vn 0.407246 -0.082061 0.909625
vn -0.077438 0.418219 0.905039
vn 0.078290 0.419362 0.904437
vn -0.407244 -0.082067 0.909625
vn -0.400300 0.079323 0.912945
vn 0.078922 -0.455545 0.886708
vn -0.078922 -0.455545 0.886708
vn 0.400300 0.079323 0.912945
vn 0.407244 -0.082067 0.909625
vn -0.077360 0.389493 0.917775
vn 0.077360 0.389493 0.917775
vn -0.293730 0.298850 0.907971
vn -0.300297 -0.311321 0.901610
vn 0.300297 -0.311321 0.901610
vn 0.294384 0.300174 0.907322
vn -0.289830 0.290525 0.911918
vn -0.300309 -0.311319 0.901607
vn 0.300309 -0.311319 0.901607
vn 0.289830 0.290525 0.911918
vt 1.000000 0.000000
vt 1.000000 1.000000
vt 0.000000 1.000000
vt 0.000000 0.000000
vt 0.000000 0.000000
vt 1.000000 0.000000
vt 1.000000 1.000000
vt 0.000000 1.000000
vt 0.984400 0.584800
vt 0.062500 0.400000
vt 1.000000 0.600000
vt 0.000000 0.617300
vt 0.062500 0.392700
vt 1.000000 0.400000
vt 1.000000 0.600000
vt 0.000000 0.600000
vt 0.000000 0.400000
vt 1.000000 0.400000
vt 1.000000 0.617300
vt 0.000000 0.600000
vt 0.000000 0.400000
vt 1.000000 0.370700
vt 1.000000 1.000000
vt 0.000000 1.000000
vt 0.015600 0.848600
vt 1.000000 0.619300
vt 1.000000 0.780700
vt 0.983100 0.795200
vt 0.932400 0.800000
vt 0.067600 0.800000
vt 0.016900 0.795200
vt 0.000000 0.780700
vt 0.000000 0.619300
vt 0.016900 0.604800
vt 0.067600 0.600000
vt 0.983100 0.604800
vt 0.932400 0.600000
vt 0.000000 0.000000
vt 1.000000 0.000000
vt 1.000000 0.042000
vt 0.000000 0.364500
vt 0.000000 0.235500
vt 0.016900 0.208900
vt 0.067600 0.200000
vt 0.932400 0.200000
vt 0.983100 0.208900
vt 1.000000 0.235500
vt 1.000000 0.364500
vt 0.983100 0.391100
vt 0.932400 0.400000
vt 0.016900 0.391100
vt 0.067600 0.400000
vt 1.000000 1.000000
vt 0.000000 1.000000
vt 0.062500 0.795700
vt 1.000000 0.800000
vt 0.000000 0.000000
vt 1.000000 0.000000
vt 1.000000 0.200000
vt 0.250000 0.200000
vt 1.000000 1.000000
vt 0.000000 1.000000
vt 0.000000 0.800000
vt 1.000000 0.800000
vt 0.000000 0.000000
vt 1.000000 0.000000
vt 1.000000 0.200000
vt 0.000000 0.200000
vt 1.000000 1.000000
vt 0.000000 1.000000
vt 0.000000 0.800000
vt 1.000000 0.782700
vt 0.000000 0.000000
vt 1.000000 0.000000
vt 1.108400 0.269100
vt 0.000000 0.200000
vt 0.062500 0.795700
vt 1.000000 0.781500
vt 1.000000 0.618500
vt 0.065800 0.800000
vt 0.934200 0.800000
vt 1.000000 0.617300
vt 0.000000 0.618500
vt 0.000000 0.781500
vt 0.934200 0.600000
vt 0.065800 0.600000
vt 0.062500 0.392700
vt 1.000000 0.366800
vt 1.000000 0.233200
vt 0.065800 0.400000
vt 0.934200 0.400000
vt 1.108400 0.269100
vt 0.000000 0.233200
vt 0.000000 0.366800
vt 0.934200 0.200000
vt 0.065800 0.200000
vt 0.000000 0.617300
vt 2.068400 0.434200
vt 3.136700 0.249900
vt 0.937500 0.800000
vt 0.920700 0.800000
vt 0.907300 0.800000
vt 1.000000 0.782700
vt -1.068300 0.965800
vt -2.136700 1.150100
vt 0.062500 0.600000
vt 0.079300 0.600000
vt 0.092700 0.600000
vt 0.250000 0.200000
vt 1.495700 0.223200
vt 1.991400 0.213200
vt 0.937500 0.400000
vt 0.884200 0.400000
vt 0.834100 0.400000
vt 1.000000 0.370700
vt -0.495700 0.376800
vt -0.991400 0.386800
vt 0.062500 0.200000
vt 0.115800 0.200000
vt 0.165900 0.200000
vt 0.967100 0.609300
vt 0.967100 0.790700
vt 0.032900 0.790700
vt 0.032900 0.609300
vt 0.967100 0.216600
vt 0.967100 0.383400
vt 0.032900 0.383400
vt 0.032900 0.216600
g MOD_BoxWall002
f 1/1/1 2/2/2 3/3/3 4/4/4 
f 5/5/5 6/6/6 7/7/7 8/8/8 
f 9/9/9 10/106/10 11/10/11 12/112/12 
f 13/11/13 14/12/14 15/13/15 16/14/16 
f 17/15/17 18/16/18 19/17/19 20/18/20 
f 21/19/21 22/20/22 23/21/23 24/22/24 
f 6/23/6 5/24/5 25/25/25 26/100/26 
f 27/26/27 28/27/28 29/28/29 30/29/30 
f 30/29/30 31/30/31 32/31/32 33/32/33 
f 33/32/33 34/33/34 35/34/35 36/35/36 
f 30/29/30 33/32/33 36/35/36 27/26/27 
f 37/36/37 27/26/27 36/35/36 38/37/38 
f 1/38/1 4/39/4 39/40/39 40/118/40 
f 41/41/41 42/42/42 43/43/43 44/44/44 
f 44/44/44 45/45/45 46/46/46 47/47/47 
f 47/47/47 48/48/48 49/49/49 50/50/50 
f 44/44/44 47/47/47 50/50/50 41/41/41 
f 51/51/51 41/41/41 50/50/50 52/52/52 
f 53/53/53 54/54/54 55/55/55 56/56/56 
f 56/56/56 55/55/55 14/12/14 13/11/13 
f 57/57/57 58/58/58 59/59/59 60/60/60 
f 60/60/60 59/59/59 16/14/16 15/13/15 
f 8/61/8 7/62/7 61/63/61 62/64/62 
f 62/64/62 61/63/61 18/16/18 17/15/17 
f 3/65/3 2/66/2 63/67/63 64/68/64 
f 64/68/64 63/67/63 20/18/20 19/17/19 
f 65/69/65 66/70/66 67/71/67 68/72/68 
f 68/72/68 67/71/67 22/20/22 21/19/21 
f 69/73/69 70/74/70 71/75/71 72/76/72 
f 72/76/72 71/75/71 24/22/24 23/21/23 
f 9/97/9 26/77/26 73/78/73 74/79/74 
f 26/100/26 25/25/25 75/80/75 76/81/76 
f 25/103/25 10/82/10 77/83/77 78/84/78 
f 10/106/10 9/9/9 79/85/79 80/86/80 
f 39/109/39 12/87/12 81/88/81 82/89/82 
f 12/112/12 11/10/11 83/90/83 84/91/84 
f 11/115/11 40/92/40 85/93/85 86/94/86 
f 40/118/40 39/40/39 87/95/87 88/96/88 
f 74/79/74 73/78/73 28/27/28 27/26/27 
f 76/81/76 75/80/75 31/30/31 30/29/30 
f 78/84/78 77/83/77 34/33/34 33/32/33 
f 80/86/80 79/85/79 38/37/38 36/35/36 
f 82/89/82 81/88/81 48/48/48 47/47/47 
f 84/91/84 83/90/83 52/52/52 50/50/50 
f 86/94/86 85/93/85 42/42/42 41/41/41 
f 88/96/88 87/95/87 45/45/45 44/44/44 
f 9/97/9 89/98/89 79/99/79 
f 26/100/26 90/101/90 73/102/73 
f 25/103/25 91/104/91 75/105/75 
f 10/106/10 92/107/92 77/108/77 
f 39/109/39 93/110/93 87/111/87 
f 12/112/12 94/113/94 81/114/81 
f 11/115/11 95/116/95 83/117/83 
f 40/118/40 96/119/96 85/120/85 
f 37/36/37 38/37/38 79/85/79 89/121/89 
f 29/28/29 28/27/28 73/78/73 90/122/90 
f 32/31/32 31/30/31 75/80/75 91/123/91 
f 35/34/35 34/33/34 77/83/77 92/124/92 
f 46/46/46 45/45/45 87/95/87 93/125/93 
f 49/49/49 48/48/48 81/88/81 94/126/94 
f 51/51/51 52/52/52 83/90/83 95/127/95 
f 43/43/43 42/42/42 85/93/85 96/128/96 
f 9/97/9 74/79/74 89/98/89 
f 26/100/26 76/81/76 90/101/90 
f 25/103/25 78/84/78 91/104/91 
f 10/106/10 80/86/80 92/107/92 
f 39/109/39 82/89/82 93/110/93 
f 12/112/12 84/91/84 94/113/94 
f 11/115/11 86/94/86 95/116/95 
f 40/118/40 88/96/88 96/119/96 
f 27/26/27 37/36/37 89/121/89 74/79/74 
f 30/29/30 29/28/29 90/122/90 76/81/76 
f 33/32/33 32/31/32 91/123/91 78/84/78 
f 36/35/36 35/34/35 92/124/92 80/86/80 
f 47/47/47 46/46/46 93/125/93 82/89/82 
f 50/50/50 49/49/49 94/126/94 84/91/84 
f 41/41/41 51/51/51 95/127/95 86/94/86 
f 44/44/44 43/43/43 96/128/96 88/96/88 
f 4/4/4 3/3/3 58/58/58 57/57/57 
f 3/65/3 64/68/64 59/59/59 58/58/58 
f 64/68/64 19/17/19 16/14/16 59/59/59 
f 19/17/19 18/16/18 13/11/13 16/14/16 
f 18/16/18 61/63/61 56/56/56 13/11/13 
f 61/63/61 7/62/7 53/53/53 56/56/56 
f 7/7/7 6/6/6 54/54/54 53/53/53 
f 6/23/6 26/100/26 55/55/55 54/54/54 
f 26/77/26 9/97/9 14/12/14 55/55/55 
f 9/9/9 12/112/12 15/13/15 14/12/14 
f 12/87/12 39/109/39 60/60/60 15/13/15 
f 39/40/39 4/39/4 57/57/57 60/60/60 
f 2/2/2 1/1/1 70/74/70 69/73/69 
f 1/38/1 40/118/40 71/75/71 70/74/70 
f 40/92/40 11/115/11 24/22/24 71/75/71 
f 11/10/11 10/106/10 21/19/21 24/22/24 
f 10/82/10 25/103/25 68/72/68 21/19/21 
f 25/25/25 5/24/5 65/69/65 68/72/68 
f 5/5/5 8/8/8 66/70/66 65/69/65 
f 8/61/8 62/64/62 67/71/67 66/70/66 
f 62/64/62 17/15/17 22/20/22 67/71/67 
f 17/15/17 20/18/20 23/21/23 22/20/22 
f 20/18/20 63/67/63 72/76/72 23/21/23 
f 63/67/63 2/66/2 69/73/69 72/76/72 
